/* XPM */
static char *_6ffe20e327e45d3b9522a6933312be2xcnq50AarNfC85bj[] = {
/* columns rows colors chars-per-pixel */
"64 64 29 1 ",
"  c #240D0A",
". c #1C1C20",
"X c #2F363E",
"o c #450016",
"O c #4F1E17",
"+ c #461E1C",
"@ c #6B0C10",
"# c #0F4D22",
"$ c #6B571E",
"% c #736900",
"& c #151845",
"* c #321545",
"= c #19234F",
"- c #232F6E",
"; c #3E4047",
": c #736F73",
"> c #990030",
", c #ED1C24",
"< c #9C463D",
"1 c #B04633",
"2 c #22B14C",
"3 c #FFF200",
"4 c #EDC842",
"5 c #2F3699",
"6 c #6F3198",
"7 c #3751B0",
"8 c #697B8A",
"9 c #4D6DF3",
"0 c white",
/* pixels */
"OOOOOOOOOOOOOOOOOOOOOOOOOOOOOOOOOOOOOOOOOOOOOOOOOOOOOOOOOOOOOOOO",
"OO111111111111111111111111111111111111111111111111111111111111OO",
"O1O1111111111111111111111111111111111111111111111111111111111O1O",
"O11                                                          11O",
"O11  OOOOOOOOOOOOOOOOOOOOOOOOOOOOOOOOOOOOOOOOOOOOOOOOOOOOOO  11O",
"O11 O          &&&&    ####@@@@    &&&&    ####@@@@   $$$$ O 11O",
"O11 O OOOOO----&&&&OOOO####@@@@----&&&&OOOO####@@@@===$$$$ O 11O",
"O11 O OOOOO----&&&&%%%%####@@@@----&&&&%%%%####@@@@===$$$$ O 11O",
"O11 O OOOOO999-&&&&333%222#,,,@----&&&&333%222#,,,@77=444$ O 11O",
"O11 O OOOOO999-&&5&333%222#,,,@999-555&333%222#,,,@77=444$ O 11O",
"O11 O OOOOO999-&55&333%222#,,,@999-555&333%222#,,,@77=444$ O 11O",
"O11 O OOOOO999-&55&333%222#,,,@999-555&333%222#,,,@77=444$ O 11O",
"O11 O OOOOO999-&55&333%222#,,,@999-555&333%222#,,,@77=444$ O 11O",
"O11 O OOOOO999-&55&333%222#,,,@999-555&333%222#,,,@77=444$ O 11O",
"O11  OOOOOOOOOOOOOOOOOOOOOOOOOOOOOOOOOOOOOOOOOOOOOOOOOOOOOOO 11O",
"O11 11111111111111111111111111111111111111111111111111111111 11O",
"O11                                                          11O",
"O11 O OOOOOOOOOOOOOOOOOOOOOOOOOOOOOOOOOOOOOOOOOOOOOOOOOOOO O 11O",
"O11 O OOOOOOOOOOOOOOOOOOOOOOOOOOOOOOOOOOOOOOOOOOOOOOOOOOOO O 11O",
"O11 O OO&&&&OOOO####@@@@OOO$$$$++++****OOOOXXXOOOOOO&&&&OO O 11O",
"O11 ----&&&&OOOO####@@@@===$$$$++++****OOOOXXX..----&&&&OO O 11O",
"O11 999-&&5&%%%%222#@@@@===$$$$++++666*OOOO88X..999-&&&&%%%% 11O",
"O11 999-&55&333%222#@@,@===$$$$++++666*OOOO88X..999-&&&&333% 11O",
"O11 999-&55&333%222#@,,@===44$$++++666*OOOO88X..999-&5&&333% 11O",
"O11 999-&55&333%222#@,,@===444$++++666*OOOO88X..999-&55&333% 11O",
"O11 999-&55&333%222#@,,@===444$++++666*OOOO88X..999-&55&333% 11O",
"O11 999-&55&333%222#@,,@===444$++++666*OOOO88X..999-&55&333% 11O",
"O11 999-&55&333%222#@,,@===444$++++666*OOOO88X..999-&55&333% 11O",
"O11 OOOOOOOOOOOOOOOOOOOOOOOOOOOOOOOOOOOOOOOOOOOOOOOOOOOOOOOO 11O",
"O11 O1111111111111111111111111111111111111111111111111111111 11O",
"O11                                                          11O",
"O11 O OOOOOOOOOOOOOOOOOOOOOOOOOOOOOOOOOOOOOOOOOOOOOOOOOOOO O 11O",
"O11 OooooOOOOOOOOOO$$$$++++****OOOOXXXOOOOOO&&&&OOOO####@@@@ 11O",
"O11 OooooOOOOOOO===$$$$++++****OOOOXXX..----&&&&OOOO####@@@@ 11O",
"O11 Ooooo::::OOO===$$$$++++****OOOOXXX..----&&&&%%%%####@@@@ 11O",
"O11 O>>>o000:OOO77=444$++++666*OOOO88X;;----555&333%####@@@@ 11O",
"O11 O>>>o000:OOO77=444$++++666*OOOO88X;;----555&333%22##,,,@ 11O",
"O11 O>>>o000:OOO77=444$++++666*OOOO88X;;999-555&333%222#,,,@ 11O",
"O11 O>>>o000:OOO77=444$++++666*OOOO88X;;999-555&333%222#,,,@ 11O",
"O11 O>>>o000:OOO77=444$++++666*OOOO88X;;999-555&333%222#,,,@ 11O",
"O11 O>>>o000:OOO77=444$++++666*OOOO88X;;999-555&333%222#,,,@ 11O",
"O11 OOOOOOOOOOOOOOOOOOOOOOOOOOOOOOOOOOOOOOOOOOOOOOOOOOOOOOOO 11O",
"O11 11111111111111111111111111111111111111111111111111111111 11O",
"O11                                                          11O",
"O11 O OOOOOOOOOOOOOOOOOOOOOOOOOOOOOOOOOOOOOOOOOOOOOOOOOOOO O 11O",
"O11 O OOOOOOOOOOOOOOOOOOOOOOOOOOOOOOOOOOOOOOOOOOOOOOOOOOOO O 11O",
"O11 O OOOOOOOOOOOOOOOOOOOOOOOOOOOOOOOOOOOOOOOOOOOOOOOOOOOO O 11O",
"O11 O OOOOOOOOOOOOOOOOOOOOOOOOOOOOOOOOOOOOOOOOOOOOOOOOOOOO O 11O",
"O11 O OOO$$$$++++****OOOOXXXOOOOOO&&&&OOOOooooOOOOOOOOOO$$$$ 11O",
"O11 O ===$$$$++++****OOOOXXX;;----&&&&OOOOooooOOOOOOO===$$$$ 11O",
"O11 O 77=44$$<<<+****OOOOXXX;;----555&%%%%>>oo::::OOO===444$ 11O",
"O11 O 77=444$<<<+**6*OOOOXXX;;999-555&%%%%>>>o::::OOO77=444$ 11O",
"O11 O 77=444$<<<+*66*OOOOXXX;;999-555&333%>>>o000:OOO77=444$ 11O",
"O11 O 77=444$<<<+*66*OOOOXXX;;999-555&333%>>>o000:OOO77=444$ 11O",
"O11 O 77=444$<<<+*66*OOOOXXX;;999-555&333%>>>o000:OOO77=444$ 11O",
"O11 O 77=444$<<<+*66*OOOOXXX;;999-555&333%>>>o000:OOO77=444$ 11O",
"O11 O 77=444$<<<+*66*OOOOXXX;;999-555&333%>>>o000:OOO77=444$ 11O",
"O11 OOOOOOOOOOOOOOOOOOOOOOOOOOOOOOOOOOOOOOOOOOOOOOOOOOOOOOOO 11O",
"O11 11111111111111111111111111111111111111111111111111111111 11O",
"O11                                                          11O",
"O11 OOOOOOOOOOOOOOOOOOOOOOOOOOOOOOOOOOOOOOOOOOOOOOOOOOOOOOOO 11O",
"O11 OOOOOOOOOOOOOOOOOOOOOOOOOOOOOOOOOOOOOOOOOOOOOOOOOOOOOOOO 11O",
"O11 OOOOOOOOOOOOOOOOOOOOOOOOOOOOOOOOOOOOOOOOOOOOOOOOOOOOOOOO 11O",
"    OOOOOOOOOOOOOOOOOOOOOOOOOOOOOOOOOOOOOOOOOOOOOOOOOOOOOOOO    "
};
