/* XPM */
static char *eb09f21148114374f9295bf0927e8a38K0mn3Wr2WuD15Okk[] = {
/* columns rows colors chars-per-pixel */
"64 64 8 1 ",
"  c black",
". c #160806",
"X c #30130E",
"o c #4F1E17",
"O c #464646",
"+ c #736F73",
"@ c #B04633",
"# c #B4B4B4",
/* pixels */
"oooooooooooooooooooooooooooooooooooooooooooooooooooooooooooooooo",
"oo@@@@@@@@@@@@@@@@@@@@@@@@@@@@@@@@@@@@@@@@@@@@@@@@@@@@@@@@@@@@oo",
"o@o@@@@@@@@@@@@@@@@@@@@@@@@@@@@@@@@@@@@@@@@@@@@@@@@@@@@@@@@@@o@o",
"o@@..........................................................@@o",
"o@@.XXXXX.X.XXXXX.X.XXXXXX.X.XXXXXX.X.XXXXX.X.XXXXX.X.XXXXXX.@@o",
"o@@.@#+@Xo@.@@#+Xo@.@@#+@Xo@.@@#+@Xo@.@#+@Xo@.@#+@Xo@.@@#+@X.@@o",
"o@@.@O @Xo@.@@O Xo@.@@O @Xo@.@@O @Xo@.@O @Xo@.@O @Xo@.@@O @X.@@o",
"o@@.oooooooooooooooooooooooooooooooooooooooooooooooooooooooo.@@o",
"o@@.@@@@@@@@@@@@@@@@@@@@@@@@@@@@@@@@@@@@@@@@@@@@@@@@@@@@@@@@.@@o",
"o@@..........................................................@@o",
"o@@.XXXXX.X.XXXXX.X.XXXXXX.X.XXXXXX.X.XXXXX.X.XXXXX.X.XXXXXX.@@o",
"o@@.@@@@Xo@.@@@@Xo@.@@@@@Xo@.@@@@@Xo@.@@@@Xo@.@@@@X.@.@@@@@X.@@o",
"o@@.@#+@Xo@.@@#+Xo@.@@#+@Xo@.@@#+@Xo@.@#+@Xo@.@#+@X.@.@@#+@X.@@o",
"o@@.@O @Xo@.@@O Xo@.@@O @Xo@.@@O @Xo@.@O @Xo@.@O @X.@.@@O @X.@@o",
"o@@.@@@@Xo@.@@@@Xo@.@@@@@Xo@.@@@@@Xo@.@@@@Xo@.@@@@X.@.@@@@@X.@@o",
"o@@.oooooooooooooooooooooooooooooooooooooooooooooooooooooooo.@@o",
"o@@.@@@@@@@@@@@@@@@@@@@@@@@@@@@@@@@@@@@@@@@@@@@@@@@@@@@@@@@@.@@o",
"o@@..........................................................@@o",
"o@@.XXXXX.X.XXXXX.X.XXXXXX.X.XXXXXX.X.XXXXX.X.XXXXX.X.XXXXXX.@@o",
"o@@.@#+@Xo@.@@#+Xo@.@@#+@Xo@.@@#+@Xo@.@#+@Xo@.@#+@Xo@.@@#+@X.@@o",
"o@@.@O @Xo@.@@O Xo@.@@O @Xo@.@@O @Xo@.@O @Xo@.@O @Xo@.@@O @X.@@o",
"o@@.@@@@Xo@.@@@@Xo@.@@@@@Xo@.@@@@@Xo@.@@@@Xo@.@@@@Xo@.@@@@@X.@@o",
"o@@.oooooooooooooooooooooooooooooooooooooooooooooooooooooooo.@@o",
"o@@.@@@@@@@@@@@@@@@@@@@@@@@@@@@@@@@@@@@@@@@@@@@@@@@@@@@@@@@@.@@o",
"o@@..........................................................@@o",
"o@@.XXXXX.X.XXXXX.X.XXXXXX.X.XXXXXX.X.XXXXX.X.XXXXX.X.XXXXXX.@@o",
"o@@.@#+@Xo@.@@#+Xo@.@@#+@Xo@.@@#+@Xo@.@#+@Xo@.@#+@Xo@.@@#+@X.@@o",
"o@@.@O @Xo@.@@O Xo@.@@O @Xo@.@@O @Xo@.@O @Xo@.@O @Xo@.@@O @X.@@o",
"o@@.@@@@Xo@.@@@@Xo@.@@@@@Xo@.@@@@@Xo@.@@@@Xo@.@@@@Xo@.@@@@@X.@@o",
"o@@.@@@@Xo@.@@@@Xo@.@@@@@Xo@.@@@@@Xo@.@@@@Xo@.@@@@Xo@.@@@@@X.@@o",
"o@@.oooooooooooooooooooooooooooooooooooooooooooooooooooooooo.@@o",
"o@@.@@@@@@@@@@@@@@@@@@@@@@@@@@@@@@@@@@@@@@@@@@@@@@@@@@@@@@@@.@@o",
"o@@..........................................................@@o",
"o@@.XXXXX.X.XXXXX.X.XXXXXX.X.XXXXXX.X.XXXXX.X.XXXXX.X.XXXXXX.@@o",
"o@@.@@@@Xo@.@@@@Xo@.@@@@@Xo@.@@@@@Xo@.@@@@Xo@.@@@@X.@.@@@@@X.@@o",
"o@@.@#+@Xo@.@@#+Xo@.@@#+@Xo@.@@#+@Xo@.@#+@Xo@.@#+@X.@.@@#+@X.@@o",
"o@@.@O @Xo@.@@O Xo@.@@O @Xo@.@@O @Xo@.@O @Xo@.@O @X.@.@@O @X.@@o",
"o@@.@@@@Xo@.@@@@Xo@.@@@@@Xo@.@@@@@Xo@.@@@@Xo@.@@@@X.@.@@@@@X.@@o",
"o@@.oooooooooooooooooooooooooooooooooooooooooooooooooooooooo.@@o",
"o@@.@@@@@@@@@@@@@@@@@@@@@@@@@@@@@@@@@@@@@@@@@@@@@@@@@@@@@@@@.@@o",
"o@@..........................................................@@o",
"o@@.XXXXX.X.XXXXX.X.XXXXXX.X.XXXXXX.X.XXXXX.X.XXXXX.X.XXXXXX.@@o",
"o@@.@#+@Xo@.@@#+Xo@.@@#+@Xo@.@@#+@Xo@.@#+@Xo@.@#+@Xo@.@@#+@X.@@o",
"o@@.@O @Xo@.@@O Xo@.@@O @Xo@.@@O @Xo@.@O @Xo@.@O @Xo@.@@O @X.@@o",
"o@@.@@@@Xo@.@@@@Xo@.@@@@@Xo@.@@@@@Xo@.@@@@Xo@.@@@@Xo@.@@@@@X.@@o",
"o@@.@@@@Xo@.@@@@Xo@.@@@@@Xo@.@@@@@Xo@.@@@@Xo@.@@@@Xo@.@@@@@X.@@o",
"o@@.oooooooooooooooooooooooooooooooooooooooooooooooooooooooo.@@o",
"o@@.@@@@@@@@@@@@@@@@@@@@@@@@@@@@@@@@@@@@@@@@@@@@@@@@@@@@@@@@.@@o",
"o@@..........................................................@@o",
"o@@.XXXXXXXXXXXXXXXXXXXXXXXXXXXXXXXXXXXXXXXXXXXXXXXXXXXXXXXX.@@o",
"o@@.XXXXXXXXXXXXXXXXXXXXXXXXXXXXXXXXXXXXXXXXXXXXXXXXXXXXXXXX.@@o",
"o@@.X@X@X@X@X@X@X@X@X@X@X@X@X@X@X@X@X@X@X@X@X@X@X@X@X@X@X@X@.@@o",
"o@@.@X@X@X@X@X@X@X@X@X@X@X@X@X@X@X@X@X@X@X@X@X@X@X@X@X@X@X@X.@@o",
"o@@.@@@@@@@@@@@@@@@@@@@@@@@@@@@@@@@@@@@@@@@@@@@@@@@@@@@@@@@@.@@o",
"o@@.@@@@@@@@@@@@@@@@@@@@@@@@@@@@@@@@@@@@@@@@@@@@@@@@@@@@@@@@.@@o",
"o@@.@@@@@@@@@@@@@@@@@@@@@@@@@@@@@@@@@@@@@@@@@@@@@@@@@@@@@@@@.@@o",
"o@@.@@@@@@@@@@@@@@@@@@@@@@@@@@@@@@@@@@@@@@@@@@@@@@@@@@@@@@@@.@@o",
"o@@.@@@@@@@@@@@@@@@@@@@@@@@@@@@@@@@@@@@@@@@@@@@@@@@@@@@@@@@@.@@o",
"o@@.@@@@@@@@@@@@@@@@@@@@@@@@@@@@@@@@@@@@@@@@@@@@@@@@@@@@@@@@.@@o",
"o@@.@@@@@@@@@@@@@@@@@@@@@@@@@@@@@@@@@@@@@@@@@@@@@@@@@@@@@@@@.@@o",
"o@@.@@@@@@@@@@@@@@@@@@@@@@@@@@@@@@@@@@@@@@@@@@@@@@@@@@@@@@@@.@@o",
"o@@.@@@@@@@@@@@@@@@@@@@@@@@@@@@@@@@@@@@@@@@@@@@@@@@@@@@@@@@@.@@o",
"o@@.@@@@@@@@@@@@@@@@@@@@@@@@@@@@@@@@@@@@@@@@@@@@@@@@@@@@@@@@.@@o",
"................................................................"
};
