/* XPM */
static char *c15d3f222c1749d88418a758094252ccKQUOwiEZ084wskGk[] = {
/* columns rows colors chars-per-pixel */
"64 64 22 1 ",
"  c #280F0B",
". c #262F3D",
"X c #4C0018",
"o c #4F1E17",
"O c #760E12",
"+ c #572319",
"@ c #7F3F00",
"# c #115826",
"$ c #766321",
"% c #2A174C",
"& c #37194C",
"* c #005B77",
"= c #4D5F7C",
"- c #990030",
"; c #ED1C24",
": c #B04633",
"> c #FF7E00",
", c #22B14C",
"< c #EDC842",
"1 c #532F99",
"2 c #6F3198",
"3 c #00B7EF",
/* pixels */
"oooooooooooooooooooooooooooooooooooooooooooooooooooooooooooooooo",
"oo::::::::::::::::::::::::::::::::::::::::::::::::::::::::::::oo",
"o:o::::::::::::::::::::::::::::::::::::::::::::::::::::::::::o:o",
"o::                                                          ::o",
"o::  ++++++++++++++++++++++++++++++++++++++++++++++++++++++  ::o",
"o:: $$$$   &&&&&&&&&&& OOOO              XXXX ************** ::o",
"o:: $$$$@@@&&&&&&&&&&&+OOOO++++++++++++++XXXX+************** ::o",
"o:: $$$$@@@&&&&&&&&&&&+OOOO@@@+++++++++++XXXXOOOOOOOOOOOOOO+ ::o",
"o:: $$$$@@@::%%%%%%%%%%OOOO@@@:::::::::::--XX;;;;;;;;;;;;;O: ::o",
"o:: <<$$>>@::%%%%%%%%%%;;OO>>@:::::::::::---X;;;;;;;;;;;;;O: ::o",
"o:: <<<$>>@::111111111%;;;O>>@***********---X############### ::o",
"o:: <<<$>>@:OOOOOOOOOO:;;;O>>@***********---X,,,,,,,,,,,,,## ::o",
"o:: <<<$>>@:;;;;;;;;OO:;;;O>>@333333333**---X,,,,,,,,,,,,,,# ::o",
"o:: <<<$>>@:;;;;;;;;;O:;;;O>>@3333333333*---X,,,,,,,,,,,,,,# ::o",
"o:: oooooooooooooooooooooooooooooooooooooooooooooooooooooooo ::o",
"o:: :::::::::::::::::::::::::::::::::::::::::::::::::::::::: ::o",
"o::                                                          ::o",
"o:: + ++++++++++++++++++++++++++++++++++++++++++++++++++++ + ::o",
"o:: XXXX&&&&&&&&&&&+$$$$++++++++++++++XXXX&&&&&&&&&&+$$$$+ + ::o",
"o:: XXXX&&&&&&&&&&&+$$$$@@@+++++++++++XXXX&&&&&&&&&&+$$$$@@@ ::o",
"o:: XXXX&&&&&&&&&&&+$$$$@@@+++++++++++XXXX&&&&&&&&&&+$$$$@@@ ::o",
"o:: XXXX22222222222:$$$$@@@:::::::::::--XX2222222222:$$$$@>@ ::o",
"o:: --XX::%%%%%%%%%%<<<$>@@:::::::::::---X:%%%%%%%%%%<<$$@>@ ::o",
"o:: ---X::%%%%%%%%%%<<<$>>@:::::::::::---X:111111111%<<<$@>@ ::o",
"o:: ---X::1111111111<<<$>>@...........---X:111111111%<<<$@>@ ::o",
"o:: ---X:OOOOOOOOOO:<<<$>>@=========..---XOOOOOOOOOO:<<<$@>@ ::o",
"o:: ---X:;;;;;;;;;O:<<<$>>@==========.---XOOOOOOOOOO:<<<$@>@ ::o",
"o:: ---X:;;;;;;;;;O:<<<$>>@==========.---XO;;;;;;;;O:<<<$@>@ ::o",
"o:: oooooooooooooooooooooooooooooooooooooooooooooooooooooooo ::o",
"o:: o::::::::::::::::::::::::::::::::::::::::::::::::::::::: ::o",
"o::                                                          ::o",
"o:: + ++++++++++++++++++++++++++++++++++++++++++++++++++XXXX ::o",
"o:: + ++@@@+++++++++++XXXX&&&&&&&&&&&+++++++++++++++++++XXXX ::o",
"o:: $$$$@@@+++++++++++XXXX&&&&&&&&&&&+++++@@@+++++++++++XXXX ::o",
"o:: $$$$@@@+++++++++++XXXX&&&&&&&&&&&+$$$$@@@+++++++++++XXXX ::o",
"o:: $$$$>>@:::::::::::XXXX::%%%%%%%%%%$$$$>>@:::::::::::XXXX ::o",
"o:: <<$$>>@:::::::::::--XX::%%%%%%%%%%<<<$>>@:::::::::::--XX ::o",
"o:: <<<$>>@...........---X::111111111%<<<$>>@...........---X ::o",
"o:: <<<$>>@==========.---X:OOOOOOOOOO:<<<$>>@=========..---X ::o",
"o:: <<<$>>@==========.---X:;;;;;;;;;O:<<<$>>@==========.---X ::o",
"o:: <<<$>>@==========.---X:;;;;;;;;;O:<<<$>>@==========.---X ::o",
"o:: oooooooooooooooooooooooooooooooooooooooooooooooooooooooo ::o",
"o:: :::::::::::::::::::::::::::::::::::::::::::::::::::::::: ::o",
"o::                                                          ::o",
"o:: + ++++++++++++++++++++++++++++++++++++++++++++++++++++ + ::o",
"o:: + ++++++++++++++++++++++++++++++++++++++++++++++++++++ + ::o",
"o:: + ++++++++++++++++++++++++++++++++++++++++++++++++++++ + ::o",
"o:: + ++++++++++++++++++++++++++++++++++++++++++++++++++++ + ::o",
"o:: &&&&&&&&&&&:$$$$::::::::::::::XXXX::::::::::::::::::::o: ::o",
"o:: 222222222&&:$$$$@@@:::::::::::XXXX:**************:::::o: ::o",
"o:: 2222222222&:<<<$>@@:::::::::::---X:3333333333333*:::::o: ::o",
"o:: 2222222222&:<<<$>>@:::::::::::---XOOOOOOOOOOOOOO::::::o: ::o",
"o:: :o%%%%%%%%%%<<<$>>@:::::::::::---X;OOOOOOOOOOOOO::::::o: ::o",
"o:: :o%%%%%%%%%%<<<$>>@:::::::::::---X;;;;;;;;;;;;;O::::::o: ::o",
"o:: :o111111111%<<<$>>@...........---X###############:::::o: ::o",
"o:: :OOOOOOOOOO:<<<$>>@...........---X,,,,,,,,,,,,,##:::::o: ::o",
"o:: :;;;;;;;;;O:<<<$>>@.========..---X,,,,,,,,,,,,,,#:::::o: ::o",
"o:: o;;;;;;;;;Oo<<<$>>@.=========.---X,,,,,,,,,,,,,,#ooooooo ::o",
"o:: :::::::::::::::::::::::::::::::::::::::::::::::::::::::: ::o",
"o::                                                          ::o",
"o:: ++++++++++++++++++++++++++++++++++++++++++++++++++++++++ ::o",
"o:: ++++++++++++++++++++++++++++++++++++++++++++++++++++++++ ::o",
"o:: ++++++++++++++++++++++++++++++++++++++++++++++++++++++++ ::o",
"                                                                "
};
