/* XPM */
static char *_7506c472d18483a98bfa1a888a7f874nC7oHySOJykGyFoE[] = {
/* columns rows colors chars-per-pixel */
"64 64 6 1 ",
"  c #4C1E16",
". c #650020",
"X c #742E22",
"o c #990030",
"O c #9C842B",
"+ c #EDC842",
/* pixels */
"................................................................",
"oo.....ooooo.....oooo..oooo.....oooooooooo.......ooooo.....ooooo",
"+++OOOOo++++OOOOOo+++OO+++oOOOO++++++++++oOOOOOOOo+++++OOOOo++++",
"oooo...o+ooo.....o+oo..oo+o....ooooooooo+o.......o+oooo....o+ooo",
"oooo...o+ooooo...o+oo..oo+o....ooooooooo+o.......o+oooo....o+oo.",
"oooo...o+ooooo...o+oo..oo+o....ooooooooo+o...o...o+ooooo...o+oo.",
"oooo...o+ooooo...o+oo..oo+o...oooooooooo+o...o...o+ooooo...o+oo.",
"ooooo..o+ooooo...o+oo..oo+o...oooooooooo+o...o...o+ooooo...o+oo.",
"ooooo..o+ooooo...o+oo..oo+o...oooooooooo+o...o...o+ooooo...o+oo.",
"ooooo..o+ooooo...o+oo..oo+o...oooooooooo+o...oo..o+ooooo...o+oo.",
"ooooo..o+ooooo...o+oo..oo+o...o.oooooooo+o...oo..o+ooooo...o+oo.",
"ooooo..o+ooooo...o+oo.ooo+o...o.oooooooo+o..ooo..o+ooooo...o+oo.",
"ooooo..o+ooooo...o+oo.ooo+o..oo.ooo.oooo+o..ooo..o+ooooo...o+oo.",
"ooooo..o+ooooo...o+oo.ooo+o..oo.ooo.oooo+o..ooo..o+ooooo...o+oo.",
"ooooo..o+oooooo..o+oo.ooo+o..oo.ooo.oooo+o..ooo..o+ooooo...o+oo.",
"ooooo..o+oooooo..o+oo.ooo+o..oo.ooo.oooo+o..ooo..o+ooooo...o+oo.",
"ooooo..o+oooooo..o+oo.ooo+o..oo.ooo.oooo+o..ooo..o+oooooo..o+oo.",
"oooooo.o+oo.ooo..o+oo.ooo+o..oo.ooo.oooo+o..ooo..o+oooooo..o+oo.",
"oooooo.o+oo.ooo..o+oo..oo+o..oo.ooo.oooo+o..ooo..o+ooo.oo..o+oo.",
"oooooo.o+oo.ooo..o+oo..oo+o..oo.ooo.oooo+o..ooo..o+ooo.oo..o+oo.",
"oooooo.o+oo.ooo..o+oo..oo+o.ooo.ooo.oooo+o..ooo..o+ooo.oo..o+oo.",
"oooooo.o+oo.ooo..o+oo..oo+o.ooo.ooo.oooo+o..ooo..o+ooo.oo..o+o..",
"oooooo.o+oo.ooo..o+oo..oo+o.ooo.ooo.oooo+o..ooo..o+ooo.oo..o+o..",
"oooooo.o+oo.oooo.o+oo..oo+o.ooo.ooo.oooo+o..ooo..o+ooo.oo..o+o..",
"o.oooo.o+oo.oooo.o+oo..oo+o.ooo.oo..oooo+o..oooo.o+ooo.oo..o+o..",
"o.oooo.o+oo..ooo.o+oo..oo+o.ooo.oo..oooo+o..oooo.o+ooo.oo..o+o..",
"o.oooo.o+oo..ooo.o+oo..oo+o.ooo.oo..oooo+o..oooo.o+ooo.oo..o+o..",
"o.oooo.o+oo..ooo.o+oo..oo+o.ooo.ooo.oooo+o..oooo.o+ooo.oo..o+o..",
"o.oooo.o+oo..ooo.o+oo..oo+o.ooo.ooo.oooo+o..oooo.o+ooo.oo..o+o..",
"o.oooo.o+oo..ooo.o+oo..oo+o.oo..ooo.oooo+o..oooo.o+ooo.ooo.o+o..",
"o.oooo.o+oo..ooo.o+oo..oo+o.oo..ooo.oooo+o.ooo.o.o+ooo.ooo.o+o..",
"o.oooo.o+oo..ooo.o+o..ooo+o.oo..ooo.oooo+o.ooo.o.o+ooo.ooo.o+o..",
"o.oooo.o+oo..ooo.o+o..ooo+o.oo..ooo.oooo+o.ooo.o.o+ooo.ooo.o+o.o",
"o.oooo.o+oo..ooo.o+o..ooo+o.oo..ooo.oooo+o.ooo.o.o+ooo.ooo.o+o.o",
"o..ooo.o+oo..ooo.o+o..ooo+o.oo..ooo.oooo+o.ooo.o.o+ooo.ooo.o+o.o",
"o..ooo.o+o..oooo.o+o..ooo+o.ooo..oo.oooo+o.ooo.o.o+ooo.ooo.o+o.o",
"o..ooo.o+o..oooo.o+o..ooo+o.ooo..oo.oooo+o.ooo.o.o+ooo.ooo.o+o.o",
"o..ooo.o+o..oooo.o+o..ooo+o.ooo..oo.oooo+o.ooo.o.o+ooo.ooo.o+o.o",
"o..ooo.o+o..oooo.o+o..ooo+o.ooo..oo.oooo+o.ooo.o.o+ooo.ooo.o+o.o",
"o..ooo.o+o..oooo.o+o..ooo+o.ooo..oo.oooo+o.ooo.o.o+ooo.ooo.o+o.o",
"o..ooo.o+o..oooo.o+o..ooo+o.ooo..oo.oooo+o.ooo.o.o+ooo.ooo.o+o.o",
"o..ooo.o+o..oooo.o+o..ooo+o.ooo..oo.oooo+o.ooo.o.o+ooo.ooo.o+o.o",
".o.ooo.o+o..oooo.o+o..ooo+o.ooo..oo.oooo+o.ooo.o.o+ooo.ooo.o+o.o",
".o.ooo.o+o..oooo.o+o.oooo+o.ooo..oo..ooo+o.ooo.o.o+ooo.ooo.o+o.o",
".o.ooo.o+o..oooo.o+o.oooo+o.ooo..oo..ooo+o.ooo.o.o+ooo.ooo.o+o.o",
".o.ooo.o+o..oooo.o+o.oooo+o.ooo..oo..ooo+o.ooo.o.o+ooo.ooo.o+o.o",
".o.ooo.o+o..oooo.o+o.oooo+o.ooo..oo..ooo+o.ooo.o.o+ooo.ooo.o+o.o",
".o.ooo.o+o..oooo.o+o.oooo+o.ooo..oo..ooo+o.ooo.o.o+ooo.ooo.o+o.o",
".o.ooo.o+o..oooo.o+o.oooo+o.ooo..ooo.ooo+o.ooo.o.o+oo..ooo.o+o.o",
".ooooo.o+o..oooo.o+o.oooo+o.ooo..ooo.ooo+o.ooo.o.o+oo..ooo.o+o.o",
".ooooo.o+o.ooooo.o+o.oooo+o.ooo..ooo.ooo+o.ooo.o.o+oo..ooo.o+o.o",
".ooooo.o+o.ooooo.o+o.oooo+o.oooo.oooo.oo+o.ooo.o.o+oo..ooo.o+o.o",
".ooooo.o+o.ooooo.o+o.oooo+o.oooo.oooo.oo+o.ooo.o.o+oo..ooo.o+o.o",
".ooooo.o+o.ooooo.o+o.oooo+o.oooo.oooo.oo+o.ooo.o.o+ooo.ooo.o+o.o",
".ooooo.o+o.ooooo.o+o.oooo+o.oooo.oooo.oo+o.ooo.o.o+ooo.ooo.o+o.o",
".ooooo.o+o.ooooo.o+o.oooo+o.oooo.oooo.oo+o.ooo.o.o+ooo.ooo.o+o.o",
".ooooo.o+o.ooooo.o+o.oooo+o.oooo.oooo.oo+o.ooo.o.o+ooo.ooo.o+o.o",
".ooooo.o+o.ooooo.o+o.oooo+o.oooo.oooo.oo+o.ooo.o.o+ooo.ooo.o+o.o",
"O+++++.o+o.ooooo.o++O+++++o.oooo.oooo.oo+oO+++O+Oo+ooo.ooo.o++O+",
".ooooo.o+o.ooooo.ooo.oooooo.oooo.ooooo.o+o.ooo.o.o+ooo.ooo.ooo.o",
"++++++Oo++O+++++O+++O++++++O++++O+++++O++oO+++O+Oo++++++++O+++O+",
"+ + + Oooo.ooooo.+o+ + +o+o.oooo.ooooo.oooO + O Oooooooooo.+o+ +",
"       +++O+++++++++    ++++++++++++++O+++       ++++++++++++   ",
"XXXXXXX+ + + + + + +XXXX+ + + + + + + O + XXXXXXX+ + + + + + XXX"
};
