/* XPM */
static char *_5ee6732c5b34ef1d5a1c15ca00e2cb6xwAAqIQa9bKk2Nw9[] = {
/* columns rows colors chars-per-pixel */
"64 64 123 2 ",
"   c #0D0B14",
".  c #140F1C",
"X  c #0C1414",
"o  c #17121E",
"O  c #102B1D",
"+  c #10381F",
"@  c #171E20",
"#  c #201A2A",
"$  c #162120",
"%  c #172A23",
"&  c #142E23",
"*  c #1F252C",
"=  c #1E282C",
"-  c #1E2F2C",
";  c #173325",
":  c #173927",
">  c #1F312C",
",  c #1E362D",
"<  c #173F28",
"1  c #1E382D",
"2  c #1D3E2F",
"3  c #1D2831",
"4  c #1C3831",
"5  c #1C3F32",
"6  c #282736",
"7  c #253335",
"8  c #253635",
"9  c #253B36",
"0  c #233F35",
"q  c #243C36",
"w  c #363A3F",
"e  c #1C432F",
"r  c #1D442F",
"t  c #1C4033",
"y  c #1B4533",
"u  c #1C4532",
"i  c #1B4933",
"p  c #234135",
"a  c #234436",
"s  c #214B36",
"d  c #204E36",
"f  c #205036",
"g  c #2F4341",
"h  c #3A4F4C",
"j  c #3C4D4D",
"k  c #285F47",
"l  c #2F5F44",
"z  c #2F514F",
"x  c #2C564C",
"c  c #2A584A",
"v  c #285D48",
"b  c #335A47",
"n  c #345847",
"m  c #315C45",
"M  c #365549",
"N  c #39524B",
"B  c #2F4F50",
"V  c #364357",
"C  c #314C53",
"Z  c #334954",
"A  c #2F5050",
"S  c #2D6043",
"D  c #3C6E4F",
"F  c #3F6E51",
"G  c #424551",
"H  c #525D57",
"J  c #555C5A",
"K  c #5C585E",
"L  c #40674D",
"P  c #44654F",
"I  c #40684D",
"U  c #456550",
"Y  c #496352",
"T  c #4C6154",
"R  c #4E6657",
"E  c #406D52",
"W  c #466B57",
"Q  c #436C55",
"!  c #446C55",
"~  c #486B57",
"^  c #496A58",
"/  c #4C685B",
"(  c #4E6F5A",
")  c #4F685D",
"_  c #53645A",
"`  c #51675E",
"'  c #59625F",
"]  c #536D5C",
"[  c #467154",
"{  c #487155",
"}  c #4C7058",
"|  c #507E5E",
" . c #645E66",
".. c #566562",
"X. c #5C6161",
"o. c #596364",
"O. c #576C60",
"+. c #5E6B64",
"@. c #557E61",
"#. c #597E64",
"$. c #5C7E66",
"%. c #61616A",
"&. c #6A686D",
"*. c #617E6A",
"=. c #667E6D",
"-. c #687E6E",
";. c #6B7E70",
":. c #707F74",
">. c #747F77",
",. c gray50",
"<. c #538470",
"1. c #578574",
"2. c #5A8578",
"3. c #5C857A",
"4. c #5F857D",
"5. c #638580",
"6. c #668783",
"7. c #6A8787",
"8. c #6C878A",
"9. c #748893",
"0. c #798997",
"q. c #87A490",
"w. c #858AA2",
/* pixels */
"G j G M M G G j * :.w.M M G N j j j # ,.6.G j j j # ,.w.G G w.j 8.G N j G , >.w.j G M M G # >.0.j G M M G N j * * ,.w.M G j j j ",
"M M j G M = j j # ,.w.M G M n G j G = *.6.3.M j G # ,.0.# 2 2 # * # * * > , #.6.M j w.6.= = >.w.G G M G M n # * ,.9.6.M b M j G ",
"M j n M M j G M # = *.6.G M b 8.M G = , #.w.n N w.9.w.;.*.*.#.*.-.-.:.>.,.*.# , = 2 M M = ,.6.w.j M , G M b > *.w.9.M b # n N G ",
"6.M j N M j G M G = *.9.j G j G N N j * $.6.1.4.>.*.*.>.o o $ o $ @ @ @ $ ,.,.*.*.* > , = ,.6.G j M j j G = # -.8.j j n M m n j ",
"j G M M b G j j j * = :.0.j N j G > j # 7 ] } { U I K K K K Y Y K Y L K H H H H K *.*.2 ,.9.9.j j j j j = > >.w.8.j G j M b m n ",
"j N b b b n M N 0.j * ,.1.G M M G N N 6.] }   Y @ o ; 6 6 6 0 0 6 0 +.0 ; ; o $ % : : #.$., N j j j G r # *.6.w.N N M M b G M j ",
"j j j j , m m n G N = * :.6.G M G G 3.q.  ; 0 / 0 0 a 7 j j j j M 0 %.7 6 0 0 7 7 @ $ ; < @.2 G N j * = *.w.6.G G b M G 6.M M M ",
"N j j j j j G N N M G , ,.9.j 0.0.6.] O o 6 a W Z G b h j G j G b 0 / 0 0 6 0 9 7 7 @ @ @ o -.> , # , ,.9.9.j j M M M G G b b j ",
"N G M m M G j G G j j , , *.0.4.( ( O : 7 0 0 ..7 6 7 7 6 p 7 0 0 a / 6 7 6 6 p 7 0 s 0 o $ o ,.:.= , *.6.j 2 M M M b j M , = * ",
"9.3.M n M G G M M G M G # :.w.O.w T ) W ../ Q ....%./ ..o.! %./ ..` ^ / %./ ....Q / ~ / %.K Y Y K *.,.w.9.G j G j j b = , 2 :.:.",
",.*.3.w.M j j w.j M j j = , =.O.; 0 W a C C C B x c x V ..C z x c V B B Z z C V z Q 6 0 7 7 o $ ; ,.= j M j j M M , , = :.:.9.6.",
", , #.*.6.6.M j M b M b w.2.O.o ; a ..c M l n G G M j 7 %.x 0 j N M j M z j M M a Q n M 0 0 7 0 : ; *.# M j G # , = #.q.3.9.w.G ",
"G , , 2 R ,.6.6.S S M b 6.( @ ; s d Q c j M m j j j M 0 o.z j n b G M M N M n b s ~ b M G a 0 a a ; : *., # = , *.*.6.w.M M G G ",
"G j j M , # _ #.1.<.M 5.[ 2 a 6 0 0 Q 7 s a a a 0 0 0 7 / 0 6 s s p a 0 a s a 6 s ^ 0 a 6 9 7 0 0 o $ : *.1 ,.,.6.6.w.j j j M M ",
"M j G G j j - #  .=.w.7.O.^ o.) %.%./ Q ^ ` / ~ %./ %.../ ..o.%.) %.^ ` o.` E Q E ~ ` ! ~ ..%.%.+.K H H *.,.9.8.w.G M M G G 6.G ",
"M G G G G G j j # , #.,.] e 7 C C C C V z c k / x C C Z C C Z C A Z %.A B V Z c c v c k C C C %.7 7 o o $ :.0.N G G G j M n M M ",
"j j G # G G G G j M , ,.] = 0 M a G j N c b a ~ z N j j Z G m j M 0 %.A M M M b N M j G m j 6 o.6 7 7 @ o ,.9.8.j j N # j j j G ",
"j G G G G G 0.j G j * , ] # 7 G M M N j j j 0 Q c n G N j j j M G 0 %.V b m G m M M c M b j 6 ~ M 6 6 @ @ $ ,.6.M j N j j j G G ",
"G G G G G G j j G * # a ] , 0 0 6 0 9 7 7 7 7 o.6 9 9 0 6 0 6 7 7 7 Q d 0 a 6 7 s d a a d 0 7 %.0 7 7 @ o o ,.6.G M n # j G = M ",
"G G G G G G j G G = ] ] W / %...%.%.` %./ Q / %...%.%...../ / / ` E Q E Q E ^ ~ ^ ..^ %.~ ..~ ~ / ..&.] K H *.6.G M b N M G j M ",
"# # # # # # # # > # ] = = 0 0 V z C ..c z x z V V z z V / V V C Z C V z C c B x c ) C V c x Z x z C 6 0 o H *.= * # = # > > * * ",
",.,.,.,.>.>.,.,.,.+.& , 6 7 j G M 7 %.M b G M j j G j 0 %.j j M j 7 M m m M n m 7 ) n n n G M M b G 7 7 $ J $ :.>.:.-.>.,.-.:.,.",
"w.w.w.w.w.w.w.w.0.&.= 6 0 G M M j 6 / M b M M M M j M t / M G M j G G m n b m m a / M M j 9 b b c n 0 9 @ J @ ,.1.w.6.6.w.8.8.6.",
"G G G G G G G j # +.= 7 6 0 0 7 6 7 %.0 0 a 0 6 0 0 a t / a 0 0 8 9 0 a a s 0 0 5 %.0 0 a a 7 7 0 s s a 6 T $ >.9.M G M G G b M ",
"G G G G w.G G G # &./ ....../ / / %.%.....^ ^ %...../ / %...W / ^ o.` ^ / W ~ ~ ~ Q / / E ) o.o.o.o.%.` O.Y K *.w.j j j j M M M ",
"G G w.G G G G G # &.# 7 %.C V Z C z z C Z Z z ) C V V B V C C z Z B ` C z c k x V x V V A C z Q M G j 6 6 $ $ *.6.M j n M M M b ",
"G G G G # G G G # &.# 6 %.V G Z G G M j j G 6 ` z j G G N j j j j 7 ^ C n M j l l M m j j b 5 ~ M G G 0 0 o ; ,.w.j G j G j j b ",
"G G G G G G G # # &.* 7 %.V G j N G M h G M 7 %.C G M 0 G G h h j 6 ^ x M b j N N G M n G M u ..M j j 6 7 ; o $ :., = = , , , , ",
"# # # # # # # 6 &.. # 6 %.a a 6 7 6 8 7 9 0 a / 0 7 6 0 7 7 7 6 6 6 ^ 3 t 5 4 3 4 5 5 4 i y u / 4 0 a 7 0 : ; ; o *.:.,.,.*.:.#.",
"&.&.&.&.&.&.&.&. . .%.o./ / W / ` ` ..o.%./ %./ ..~ / / ..%./ %...^ / ..~ Q ` Q / ) / Q %.E W W ~ %.^ / W W ] L Y Y ,.:., , , , ",
"# # # # #  .# # # 6 6 Z V V C V C Z o.Z C V V z z Z A z ..V z V C z C Z z z C x c ^ x x z k c x c z C C 0 ] 6 $ : ; ; ,.# , , # ",
"# # # # #  .# 6 6 6 G G G G M M G 0 W G j j j j G M M s %.j j j j j j j C M j j 9 ..j M m m m n l j j G 6 +.6 7 $ ; o :.# # 6 0 ",
"6 6 6 # #  .# 6 G G G 6 G G M M j a ..M M M G j 9 b b a ~ m N j j j G m G M M j p ` M M l G M j G M j j 6 &.7 6 6 $ $ ,.# 6 6 w.",
"w.G 6 6 #  .# 6 6 6 7 7 7 6 7 8 a a ..7 6 0 a 7 7 7 7 0 E d a 6 9 9 8 7 a 7 0 6 7 W 0 6 a a 0 0 0 a 6 6 9 %.G 7 6 o o ,.* # 6 6 ",
"G 6 6 # #  . .&.%.%.o.o.o.%.` o.W / ! ~ / %./ / ` ` o.o.` ..^ ^ ! %.^ o.` ..o.o./ ~ / %.` Q W o.%.W %.%.%.%.%.&.&.T K ,.# 7 7 w.",
"w.G 6 6 #  .# 6 V V Z z %.A B z c c z C C z z ` V x v x V x z V x B ^ x z Z k z x x c B x x z o.V C Z V C V V 6 7 % o ,.# * 7 6 ",
"G 6 6 #  . .# 6 b b G 7 %.z j m n m m m j M a ) c M n M G M M m n 0 o.V N M b b n N m N M b p ) G M j j N j G 6 7 $ $ :._  .7 0.",
" . . . .#  .* 0 M b M 9 ` C N M m V n N n m a ..z l G n a M G n l 9 ~ C n n l m d l M N x M 7 ~ M m M G G j j 7 6 ; ; ,.> * X.X.",
"G 6 6 # #  .* 6 6 7 6 7 o.8 7 q 6 0 0 s a p 0 ~ 0 d 0 a s a 9 0 s 0 ! 9 f d a a f s d d f s 0 / a 6 0 7 7 7 6 6 6 ; o *.2 6 7 w.",
"w.G 6 6 #  .%.%.%./ / %.^ W ..) ) ..~ / ~ / Q %.~ ~ Q ^ ..~ ^ Q E ^ Q F E W ! F F D F Q Q / / ..~ Q Q ..%./ %.+.] Y K *.2 > 0 6 ",
"G 6 6 # #  .# 6 V z z V z C z c x C ) c v v c x x x x x o.C v z c z B v c v z c x E C z x C c c Z c z C V / V 7 0 $ @ ,.= 6 9 8.",
"w.G 6 6 #  .* 7 G j j M M G j G n 0 ) C j N m S l n G p ) B j M j M C C l m n M s E c l m j n 7 M M b G 7 ..j 7 7 $ X :.> * 6 9 ",
"G 6 6  . . .* 7 G j G b M M M M G 0 ` C j j j M G N N 0 %.x j j j N j M n l M G d Q x M S n n m b b b n 0 ` j 7 7 o + ,.R R 6 8.",
" . . .# #  .* 6 6 7 0 0 a 0 6 9 7 6 ` 6 0 s 0 7 9 6 6 7 ..0 0 a 7 a a a 0 s 9 d s ..9 6 a 0 7 q 7 7 0 s s ~ 6 9 7 @ $ *.# ,  . .",
"w.G 6 6 #  .%.%.` %./ ..../ / %./ ....W / ~ / o.%./ / %./ %.%...%...o.` ..Q ..E F ! ~ / / ~ ` ) o.o.o.o.%.` ` / %.Y K :.= 7 7 6.",
"G 6 6 # * X.# 6 V C z z %.C B V z C V z c V z ..Z V C z V C C z C C ^ z z x x x c x z x z V A %.z c z V C V V 7 7 ; ; *.* 2 0 0 ",
"w.G 6 7 *  .# 6 j G j 6 / V M M x G M M b M 0 / z j a m M M G M j 6 %.z M b m m N M M z M j 7 W z n M G G M M 6 0 o o :.# 7 6 9.",
"G 6 7 * = ' # 7 G N j 7 %.z M N N j G M M b 0 %.z M b m M b M M j 9 / z M n M m M j j j l n 6 / c G M 7 j G j 0 9 $ $ *.= = 0 0 ",
"w.j 7  . ._ = 6 6 6 a 9 ` 7 0 a a 7 7 p 7 a a o.7 7 0 0 7 7 a 0 0 6 %.0 a 7 q 7 a 0 d a s 7 0 / a a 0 0 0 7 0 s s ; o *._ X.6 6.",
"_ X. ., *  ...%./ / %...o.` ..%.~ Q / ^ o.o.` ..../ %.` ..) ../ %...%.o.%.! ~ ..%.E ^ ..%.^ ../ / W ^ o.^ / W Q } L P @.# - ~ ~ ",
"0.j 9 0 2 R , 7 V z C C Z V V V z V Q x V Z V C x x c z ) V V C B V V V V Z c x v ! c c x V C C x c z V B ` x 0 0 : : @.1 7 7 6.",
"j 7 6 , # R = a M M N j M G j M M G ^ c N M G j M b j a ` V j G j G j b b G j j 7 ` A M m m m N G M N N 9 %.G 7 0 $ : | # - 6 7 ",
"0.j 7 6 # R , 7 N M j G 0 G j M j j o.C G N N j j n M m ~ j M M G j M M b M N N 7 o.V M G M n n M M j G a ..j 0 a o ; @.1 0 6 9.",
"b 6 7 = = ' # 0 0 a 6 7 7 7 7 7 7 7 ..A 7 6 9 7 6 7 0 b Q n m G G j G G j G 9 8 7 o.7 6 6 0 a 8 9 0 7 6 0 %.9 0 7 @ o :.# > p 7 ",
"9.M 0 R  .' ` W W W ~ / ` o.o.o.%.Q %./ / %.` ` / / W %./ o.%./ %.%.%.%./ / %./ W %.........o./ / W %.......o.....o...-.X. .9 8.",
" .'  ., , ' = 7 C z c s ~ V A C Z C z V z V V W z V z z z z z c V V ..V z z V z C z z z V C A W c c x z A Z Z 7 6 < o *., # _ _ ",
"6.M 0 6 , _ = 7 j j j 6 ` A M G M G j j j j 0 / z G G b b j G b G 7 o.V j j M M G j G M M j 7 o.C M m m n V N 7 7 $ ; ,., 6 6 3.",
"M 6 7 # # _ # 0 m M G 7 %.V j C z M M j n M 0 / c j M M j j G j G 7 ` V j G b M M M M G M N 7 o.Z j j V N N M 6 0 o $ :.* * 0 0 ",
"6.M 6 0 = ' 2 0 n M G 6 / z G M G G j G j G 7 ..c j M b j j G M j 7 ..V j M M b M G j G G N 6 / c M G j G G j 7 0 ; ; >.2 0 0 6.",
"' '  .R '  .R a 6 0 7 7 %.7 0 6 7 7 0 7 7 0 0 / z 7 7 7 7 0 0 0 6 6 %.A 6 0 7 7 0 0 6 0 7 7 a / a 0 6 6 0 0 6 0 6 o '  .'  .' ' ",
"G M M j G M , ~ g / / / ../ W / / %./ ..%.%./ ..W / W ..%.%./ o.o.%.%.%.../ / %.....%./ ..%./ W %./ ..o.%.../ K ' ' M j j M M M ",
"M M j G j G M M ~ , V z z c c z c z z V C z z z z V / z V V V z z V V Z V C V z V z / C V z z c z z z z C z : ; R G M j G G M j ",
"j M M M G G j j R , 6 j 7 M M G j b M M G G M M G 7 ..C M M G M G G j G j j j G M 0 ..V j G M M b M G M M a : ; ~ M M G j M M M ",
"j G G j M M j G  .= 7 7 6 6 7 6 7 7 0 6 7 6 6 6 0 0 %.6 0 6 6 6 6 6 6 6 6 0 7 7 7 0 / 0 6 6 7 7 0 0 6 7 7 0 ; o ' b M M G G M M "
};
