/* XPM */
static char *_1055cbd5c464d6eb4b8ae5c349a6c38CUc4G448GD7YDvOe[] = {
/* columns rows colors chars-per-pixel */
"64 64 137 2 ",
"   c black",
".  c #020D06",
"X  c #031207",
"o  c #0D0B14",
"O  c #140F1C",
"+  c #0C1414",
"@  c #17121E",
"#  c #06230F",
"$  c #082E14",
"%  c #102B1D",
"&  c #10381F",
"*  c #121120",
"=  c #171E20",
"-  c #1C1E32",
";  c #201A2A",
":  c #162120",
">  c #142C24",
",  c #1F252C",
"<  c #1E282C",
"1  c #173124",
"2  c #173927",
"3  c #1E352D",
"4  c #163D28",
"5  c #1E3D2E",
"6  c #1D2931",
"7  c #1C3331",
"8  c #173834",
"9  c #1C3A31",
"0  c #282736",
"q  c #2C2D32",
"w  c #253235",
"e  c #293633",
"r  c #233E35",
"t  c #283832",
"y  c #363A3F",
"u  c #1D442F",
"i  c #1B4233",
"p  c #1B4933",
"a  c #234536",
"s  c #214B36",
"d  c #205135",
"f  c #34314C",
"g  c #2C4545",
"h  c #294D44",
"j  c #3C4B44",
"k  c #3C4D4D",
"l  c #2D5F45",
"z  c #2D544D",
"x  c #2A5A4A",
"c  c #365342",
"v  c #325A47",
"b  c #385F47",
"n  c #365549",
"m  c #39524B",
"M  c #355C4E",
"N  c #3C5A49",
"B  c #2F4F50",
"V  c #364357",
"C  c #324B53",
"Z  c #2F5050",
"A  c #3F5056",
"S  c #385850",
"D  c #2D6043",
"F  c #3F604E",
"G  c #3C6E4F",
"H  c #3E6D50",
"J  c #424347",
"K  c #40484E",
"L  c #43544D",
"P  c #424551",
"I  c #404F57",
"U  c #4B4D51",
"Y  c #46495C",
"T  c #4D5656",
"R  c #445C50",
"E  c #525D57",
"W  c #55505C",
"Q  c #545D5E",
"!  c #5C585E",
"~  c #43664F",
"^  c #40684D",
"/  c #436653",
"(  c #4C6455",
")  c #436C55",
"_  c #486B57",
"`  c #4C615A",
"'  c #4C685B",
"]  c #52665D",
"[  c #59625F",
"{  c #536D5C",
"}  c #467154",
"|  c #487155",
" . c #42775B",
".. c #4D7058",
"X. c #507E5E",
"o. c #645E66",
"O. c #4E6E6C",
"+. c #566562",
"@. c #596364",
"#. c #576C60",
"$. c #5E6B64",
"%. c #467164",
"&. c #4A7563",
"*. c #4C716A",
"=. c #557F62",
"-. c #5A7E65",
";. c #56746D",
":. c #576B77",
">. c #5A6B7A",
",. c #587470",
"<. c #61616A",
"1. c #6A686D",
"2. c #617E6A",
"3. c #687E6E",
"4. c #617377",
"5. c #6B7E70",
"6. c #717F75",
"7. c gray50",
"8. c #568574",
"9. c #508A77",
"0. c #5C857A",
"q. c #588C7F",
"w. c #636882",
"e. c #549185",
"r. c #59928C",
"t. c #5F9595",
"y. c #638580",
"u. c #668783",
"i. c #6A8787",
"p. c #6C878A",
"a. c #64908D",
"s. c #748893",
"d. c #798997",
"f. c #689191",
"g. c #72939C",
"h. c #87A490",
"j. c #858AA2",
/* pixels */
"P k P n n P P k , 6.j.n n P m k k k ; 7.u.P k k k ; 7.j.P P j.k p.P m k P 3 6.j.k P n n P ; 6.d.k P n n P m k , , 7.j.n P k k k ",
"n n k P n < k k ; 7.j.n P n v P k P < 2.u.0.n k P ; 7.d.; 5 5 ; , ; , , 3 3 -.u.n k j.u.< < 6.j.P P n P n v ; , 7.s.u.n v n k P ",
"n k v n n k P n ; < 2.u.P n v p.n P < 3 -.j.v m j.s.j.5.2.2.-.2.3.3.6.6.7.2.; 3 < 5 n n < 7.u.j.k n 3 P n v 3 2.j.s.n v ; v m P ",
"u.n k m n k P n P < 2.s.k P k P m m k , -.u.8.0.6.2.2.6.@ @ : @ : = = = : 7.7.2.2., 3 3 < 7.u.P k n k k P < ; 3.p.k k v n v v k ",
"k P n n v P k k k , < 6.d.k m k P 3 k ; w { ..| / ^ ! ! ! ! ( ( ! ( ^ ! E E E E ! 2.2.5 7.s.s.k k k k k < 3 6.j.p.k P k n v v v ",
"k m v v v v n m d.k , 7.8.P n n P m m u.{ ..o ( = @ 1 0 0 0 r r 0 r $.r 1 1 @ : > 2 2 -.-.3 m k k k P u ; 2.u.j.m m n n v P n k ",
"k k k k 3 v v v P m < , 6.u.P n P P 0.h.o 1 r ' r r a w k k k k n r <.w 0 r r w w = : 1 4 =.5 P m k , < 2.j.u.P P v n P u.n n n ",
"m k k k k k P m m n P 3 7.s.k d.d.u.{ % @ 0 a _ C P v k k P k P v r ' r r 0 r r w w = = = @ 3.3 3 ; 3 7.s.s.k k n n n P P v v k ",
"m P n v n P k P P k k 3 3 2.d.0.' ' % 2 w r r +.w 0 w w 0 a w r r a ' 0 w 0 0 a w r s r @ : @ 7.6.< 3 2.u.k 5 n n n v k n 3 < , ",
"s.0.n v n P P n n P n P ; 6.j.#.y ( ' _ +.' ) +.+.<.' +.@.) <.' +.] _ ' <.' +.+.) ' _ ' <.! ( ( ! 2.7.j.s.P k P k k v < 3 5 6.6.",
"7.2.0.j.n k k j.k n k k < 3 3.#.1 r _ a C C C B z x z V +.C z z x V B B C z C V z ) 0 r w w @ : 1 7.< k n k k n n 3 3 < 6.6.s.u.",
"3 3 -.2.u.u.n k n v n v j.0.#.@ 1 a +.x n l v P P n k w <.z r k m n k n z k n n a ) v n r r w r 2 1 2.; n k P ; 3 < -.h.0.s.j.P ",
"P 3 3 5 ( 7.u.u.D D n v u.' = 1 s s ) x k n v k k k n r @.z k v v P n n m n v v s _ v n P a r a a 1 2 2.3 ; < 3 2.2.u.j.n n P P ",
"P k k n 3 ; ] -.8.8.n y.} 5 a 0 r r ) w s a a a r r r w ' r 0 s s a a r a s a 0 s _ r a 0 r w r r @ : 2 2.3 7.7.u.u.j.k k k n n ",
"n k P P k k < ; o.3.j.i.#._ @.' <.<.' ) _ ] ' _ <.' <.+.' +.@.<.' <._ ] @.] ) ) ) _ ] ) _ +.<.<.$.! E E 2.7.s.p.j.P n n P P u.P ",
"n P P P P P k k ; 3 -.7.{ u w C C C C V z x l ' z C C C C C C C Z C <.Z B V C x x x x l C C C <.w w @ @ : 6.d.m P P P k n v n n ",
"k k P ; P P P P k n 3 7.{ < r n a P k m x v a _ z m k k C P v k n r <.Z n n n v m n k P v k 0 @.0 w w = @ 7.s.p.k k m ; k k k P ",
"k P P P P P d.k P k , 3 { ; w P n n m k k k r ) x v P m k k k n P r <.V v v P v n n x n v k 0 _ n 0 0 = = : 7.u.n k m k k k P P ",
"P P P P P P k k P , ; a { 3 r r 0 r r w w w w @.0 r r r 0 r 0 w w w ) s r a 0 w s s a a s r w <.r w w = @ @ 7.u.P n v ; k P < n ",
"P P P P P P k P P < { { _ ' <.+.<.<.] <.' ) ' <.+.<.<.+.+.' ' ' ] ) ) ) ) ) _ _ _ +._ <._ +._ _ ' +.1.{ ! E 2.u.P n v m n P k n ",
"; ; ; ; ; ; ; ; 3 ; { < < r r V z C +.x z z z V V z z V ' V V C C C V z C x B z x ' C V x z C z z C 0 r @ E 2.< , ; < ; 3 3 , , ",
"7.7.7.7.6.6.7.7.7.$.> 3 0 w k P n w <.n v P n k k P k r <.k k n k w n v v n v v w ' v v v P n n v P w w : Q : 6.6.6.3.6.7.3.6.7.",
"j.j.j.j.j.j.j.j.d.1.< 0 r P n n k 0 ' n v n n n n k n i ' n P n k P P v v v v v a ' n n k r v v x v r r = Q = 7.8.j.u.u.j.p.p.u.",
"P P P P P P P k ; $.< w 0 r r w 0 w <.r r a r 0 r r a i ' a r r w r r a a s r r 9 <.r r a a w w r s s a 0 ( : 6.s.n P n P P v n ",
"P P P P j.P P P ; 1.' +.+.+.' ' ' <.<.+.+._ _ <.+.+.' ' <.+._ ' _ @.] _ ' _ _ _ _ ) ' ' ) ' @.@.@.@.<.] #.( ! 2.j.k k k k n n n ",
"P P j.P P P P P ; 1.; w <.C V C C z z C C C z ' C V V B V C C z C B ] C z x l z V z V V Z C z ) n P k 0 0 : : 2.u.n k v n n n v ",
"P P P P ; P P P ; 1.; 0 <.V P C P P n k k P 0 ] z k P P m k k k k w _ C v n k l l n v k k v 9 _ n P P r r @ 1 7.j.k P k P k k v ",
"P P P P P P P ; ; 1., w <.V P k m P n k P n w <.C P n r P P k k k 0 _ z n v k m m P n v P n i +.n k k 0 w 1 @ : 6.3 < < 3 3 3 3 ",
"; ; ; ; ; ; ; 0 1.O ; 0 <.a a 0 w 0 w w r r a ' r w 0 r w w w 0 0 0 _ 6 i 9 9 6 9 9 9 9 p i i ' 9 r a w r 2 1 1 @ 2.6.7.7.2.6.-.",
"1.1.1.1.1.1.1.1.o.o.<.@.' ' _ ' ] ] +.@.<.' <.' +._ ' ' +.<.' <.+._ ' +._ ) ] ) ' ' ' ) <.) _ _ _ <._ ' _ _ { ^ ( ( 7.6.3 3 3 3 ",
"; ; ; ; ; o.; ; ; 0 0 C V V C V C C @.C C V V z z C Z z +.V z V C z C C z z C z x _ z z z l x z x z C C r { 0 : 2 1 1 7.; 3 3 ; ",
"; ; ; ; ; o.; 0 0 0 P P P P n n P r _ P k k k k P n n s <.k k k k k k k C n k k r +.k n v v v v l k k P 0 $.0 w : 1 @ 6.; ; 0 r ",
"0 0 0 ; ; o.; 0 P P P 0 P P n n k a +.n n n P k r v v a _ v m k k k P v P n n k a ] n n l P n k P n k k 0 1.w 0 0 : : 7.; 0 0 j.",
"j.P 0 0 ; o.; 0 0 0 w w w 0 w w a a +.w 0 r a w w w w r ) s a 0 r r w w a w r 0 w _ r 0 a a r r r a 0 0 r <.P w 0 @ @ 7., ; 0 0 ",
"P 0 0 ; ; o.o.1.<.<.@.@.@.<.] @._ ' ) _ ' <.' ' ] ] @.@.] +._ _ ) <._ @.] +.@.@.' _ ' <.] ) _ @.<._ <.<.<.<.<.1.1.( ! 7.; w w j.",
"j.P 0 0 ; o.; 0 V V C z <.Z B z x x z C C z z ] V z x z V z z V z B _ z z C l z z z x B z z z @.V C C V C V V 0 w > @ 7.; , w 0 ",
"P 0 0 ; o.o.; 0 v v P w <.z k v v v v v k n a ' x n v n P n n v v r @.V m n v v v m v m n v a ' P n k k m k P 0 w : : 6.] o.w d.",
"o.o.o.o.; o., r n v n r ] C m n v V v m v v a +.z l P v a n P v l r _ C v v l v s l n m z n w _ n v n P P k k w 0 1 1 7.3 , @.@.",
"P 0 0 ; ; o., 0 0 w 0 w @.w w r 0 r r s a a r _ r s r a s a r r s r ) r d s a a d s s s d s r ' a 0 r w w w 0 0 0 1 @ 2.5 0 w j.",
"j.P 0 0 ; o.<.<.<.' ' <._ _ +.' ' +._ ' _ ' ) <._ _ ) _ +._ _ ) ) _ ) H ) _ ) H H G H ) ) ' ' +._ ) ) +.<.' <.$.{ ( ! 2.5 3 r 0 ",
"P 0 0 ; ; o.; 0 V z z V z C z x z C ' x x x x z z z z z @.C x z x z B x x x z x z ) C z z C x x C x z C V ' V w r : = 7.< 0 r p.",
"j.P 0 0 ; o., w P k k n n P k P v r ' C k m v D l v P a ' B k n k n C C l v v n s ) x l v k v w n n v P w +.k w w : + 6.3 , 0 r ",
"P 0 0 o.o.o., w P k P v n n n n P r ] C k k k n P m m r <.z k k k m k n v l n P s ) z n D v v v v v v v r ] k w w @ & 7.( ( 0 p.",
"o.o.o.; ; o., 0 0 w r r a r 0 r w 0 ] 0 r s r w r 0 0 w +.r r a w a a a r s r s s +.r 0 a r w r w w r s s _ 0 r w = : 2.; 3 o.o.",
"j.P 0 0 ; o.<.<.] <.' +.+.' ' <.' +.+._ ' _ ' @.<.' ' <.' <.<.+.<.+.@.] +.) +.) H ) _ ' ' _ ] ' @.@.@.@.<.] ] ' <.( ! 6.< w w u.",
"P 0 0 ; , @.; 0 V C z z <.C B V z C V z x V z +.C V C z V C C z C C _ z z z z z x z z z z V Z <.z x z V C V V w w 1 1 2., 5 r r ",
"j.P 0 w , o.; 0 k P k 0 ' V n n z P n n v n r ' z k a v n n P n k 0 <.z n v v v m n n z n k w _ z v n P P n n 0 r @ @ 6.; w 0 s.",
"P 0 w , < [ ; w P m k w <.z n m m k P n n v r <.z n v v n v n n k r ' z n v n v n k k k l v 0 ' x P n w k P k r r : : 2.< < r r ",
"j.k w o.o.] < 0 0 0 a r ] w r a a w w a w a a @.w w r r w w a r r 0 <.r a w r w a r s a s w r ' a a r r r w r s s 1 @ 2.] @.0 u.",
"] @.o.3 , o.+.<.' ' <.+.@.] +.<._ ) ' _ @.@.] +.+.' <.] +.' +.' <.+.<.@.<.) _ +.<.) _ +.<._ +.' ' _ _ @._ ' _ ) ..^ ~ =.; < _ _ ",
"d.k r r 5 ( 3 w V z C C C V V V z V ) z V C V C z z x z ' V V C B V V V V C x z x ) x x z V C C z x z V B ] z r r 2 2 =.3 w w u.",
"k w 0 3 ; ( < a n n m k n P k n n P _ x m n P k n v k a g - 6 - 6 - 6 i v P k k w ] Z n v v v m P n m m r <.P w r : 2 X.; < 0 w ",
"d.k w 0 ; ( 3 w m n k P r P k n k k @.C P m m k 6 9 9  .&.,.&.&.4.f.q.&.i 9 m m w @.V n P n v v n n k P a +.k r a @ 1 =.3 r 0 s.",
"v 0 w < < [ ; r r a 0 w w w w w w w +.Z w * > : * L N %.%.*.s w.w.>.w.w.;.4.> : w @.w 0 0 r a w r r w 0 r <.r r w = @ 6.; 3 a w ",
"s.n r ( o.[ ] _ _ _ _ ' ] @.@.@.<.) <.' g f g L N O.%.w.R T W R W g.W w.a O.4.&.h f +.+.+.+.@.' ' _ <.+.+.+.@.+.+.@.+.3.@.o.r p.",
"o.[ o.3 3 [ < w C z x s _ V Z C C C z - 8 U U %.O.W R R S / # $   W A W R R w.O.;.&.8 8 V C Z _ x x z z Z C C w 0 4 @ 2.3 ; ] ] ",
"u.n r 0 3 ] < w k k k 0 ] Z n P n P 6 6 L >.O.R R     F M `   $   j I Q . . R R q :.4.9 9 k w @.C n v v v V m w w : 1 7.3 0 0 0.",
"n 0 w ; ; ] ; r v n P w <.V k C z 9 9 L s O.R S H X # R A j   X   T r.Q .   F S R O.e.4.9 7 w @.C k k V m m n 0 r @ : 6., , r r ",
"u.n 0 r < [ 5 r v n P 0 ' z P n - - L w.:.J j A 9.X # F A `   # X T A g.X # R M / W :.w.4.7 * ' x n P k P P k w r 1 1 6.5 r r u.",
"[ [ o.( [ o.( a 0 r w w <.w r * : L O.t T # R S / X X T A / # #   W Y (   # T A q.# W O.t.;.2 ' a r 0 0 r r 0 r 0 @ [ o.[ o.[ [ ",
"P n n k P n 3 _ g ' ' ' +.' _ g g U O.T     R A c # $ j q Q # . . W q Q X # R q a.X   R :.4.g h f ' +.@.<.+.' ! [ [ n k k n n n ",
"n n k P k P n n _ 3 V z z x i 8 b O.R   X # c S q.  # R Y Q   # # W Y `   X W S Q # # X J O.%.i 8 z z z C z 2 1 ( P n k P P n k ",
"k n n n P P k k ( 3 0 k w n 9 - L %.R #     R S Q X X T S /   #   J e Q X X j Y q.# X   T q %.9 i 9 P n n a 2 1 _ n n P k n n n ",
"k P P k n n k P o.< w w 0 0 : K :.T #   X   W Y / #   W S Q       J Y Q   # T A ` # # #   W t *.> > 0 w w r 1 @ [ v n n P P n n "
};
