/* XPM */
static char *e41b3b52bed34b28ccd6302e0263d69fxlGOml2BmdXiq3Pm[] = {
/* columns rows colors chars-per-pixel */
"64 64 18 1 ",
"  c #0B0710",
". c #0D0B14",
"X c #140F1C",
"o c #17121E",
"O c #1E1E31",
"+ c #201A2A",
"@ c #282736",
"# c #382C46",
"$ c #3A3240",
"% c #364357",
"& c #424551",
"* c #5C585E",
"= c #645E66",
"- c #61616A",
"; c #6A686D",
": c gray50",
"> c #858AA2",
", c #B4B4B4",
/* pixels */
"&&&&&&&&+:>&&&&&&&+:>&&&&+:>&&>&>&&&&+:>&&&&&+:>&&&&&&&++:>&&&&&",
"&&&&&+&&+:>&&&&&&&+:>>&&&+:>++++++++++:>&&>>++:>&&&&&&++:>>&&&&&",
"&&&&&&&&++:>&&&>&&++:>&&>>>:::::::::::++++&&+:>>&&+&&&+:>>&&+&&&",
">&&&&&&&&+:>&&&&&&&+:>>>::::ooooooooo::::++++:>&&&&&&++:>&&&&&&&",
"&&&&&&&&&++:>&&&&+&+@;;;*****************::+:>>&&&&&++:>>&&&&&&&",
"&&&&&&&&>&+:>&&&&&&>;;.*ooo@@@@@@@;@ooooooo::+&&&&&++:>>&&&&&&&&",
"&&&&+&&&&&++:>&&&&>,.o@-@@@@&&&&&@-@@@@@@oooo:+&&&++:>>&&&&&>&&&",
"&&&&&&&&&&&+:>&>>>;.o@@-%&&&&&&&&@-@@@@@@@oooo:++++:>>&&&&&&&&&&",
"&&&&&&&&&&&++:>>;;.o@@@-@@@@@@@@@@-@@@@@@@@@ooo::++:>&+&&&&&&+++",
">>&&&&&&&&&&+:>;$*---------------------------****::>>&&&&&&+++::",
"::>>&&&>&&&&++:;o@-@%%%%%%%%-%%%%%%%%%%%%-@@@@ooo:+&&&&&&+++::>>",
"++::>>&&&&&&>>;oo@-%&&&&&&&@-%@&&&&&%&&&@-&&@@@@oo:+&&&+++:,>>>&",
"&+++=:>>&&&&>;oo@@-%&&&&&&&@-%&&&&&&&&&&@-&&&@@@@oo:++++::>>&&&&",
"&&&&++=:>>&>;+@@@@-@@@@@@@@@-@@@@@@@@@@@@-@@@@@@@ooo:+::>>>&&&&&",
"&&&&&&++=:>>;-----------------------------------;***::>>>&&&&&>&",
"&&&&&&&&++::;+@%%%%%%%%-%%%%%%%%%%-%%%%%%%%%%%%-@@ooo:>&&&&&&&&&",
"&&&+&&&&&&+:;+@&@&&&%&@-%&&&%&&&&@-%&&&&&&&&&&@-@@@oo:>>&&&+&&&&",
"&&&&&&>&&&++;+@&&&&&&&@-%&&&&&&&&@-%&&&&&&%&&&@-&@@ooo:>&&&&&&&&",
"&&&&&&&&&++@;+@@@@@@@@@-@@@@@@@@@@-@@@@@@@@@@@@-@@@ooo:>&&&+&&+&",
"&&&&&&&&&+;;--------------------------------------;;**:>&&&&&&&&",
"++++++++++;++@@%%%-%%%%%%%%%-%%%%%%%%%%%%-%%%%%%%%@@o*:+++++++++",
":::::::::;X+@@&&&@-&&&&&&&&@-&&&&@&&&&&&@-&&&&&&&&@@o*o:::::::::",
">>>>>>>>>;+@@&&&&@-&&&&&&&&O-&&&&&&&&&&&@-&&&@&&%&@@o*o:>>>>>>>>",
"&&&&&&&&+;+@@@@@@@-@@@@@@@@O-@@@@@@@@@@@O-@@@@@@@@@@@*o:>&&&&&&&",
"&&&&>&&&+;------------------------------------------;**:>&&&&&&&",
"&&>&&&&&+;+@-%%%%%%%%%%-%%%%%%%%%%-%%%%%%%%%%%%-&&&@@oo:>&&&&&&&",
"&&&&+&&&+;+@-%&%&&&&&&@-%&&&&&&&&@-%&&&&&&&&&&O-&&&@@oo:>&&&&&&&",
"&&&&&&&++;+@-%&&&&&&&&@-%&&@&&&&&@-%&&&&&&&&&&O-&&&@@ooo:+++++++",
"+++++++@;X+@-@@@@@@@@@@-@@@@@@@@@@-OOOOOOOOOOOO-O@@@@oooo:::::::",
";;;;;;;;==--------------------------------------------;***::++++",
"+++++=+++@@%%%%%%%-%%%%%%%%%-%%%%%%%%%%%%-%%%%%%%%%%@;@oooo:++++",
"+++++=+@@@&&&&&&&@-&&&&&&&&@-&&&&&&&%&&&@-&&&&&&&&&&@;@@ooo:++@@",
"@@@++=+@&&&@&&&&&@-&&&&&@&&@-&&&&&&&&&&&@-&&&&&&&&&&@;@@@oo:+@@>",
">&@@+=+@@@@@@@@@@@-@@@@@@@@@-@@@@@@@@@@@@-@@@@@@@@@@@-&@@oo:++@@",
"&@@++==;-----------------------------------------------;;**:+@@>",
">&@@+=+@%%%%-%%%%%%%%%%-%%%%%%%%%%-%%%%%%%%%%%%-%%%%%%%@@oo:++@@",
"&@@+==+@&&&@-%&&&&&&&&@-%&&&&&&&&@-%&&&&&&&&&&@-&&&&&&&@@oo:==@>",
"====+=+@&&&@-%&&&%&&&&@-%&&&@&&&&@-%&&&&@&&&%&@-&&&&&&&@@oo:++==",
"&@@++=+@@@@@-@@@@@@@@@@-@@@@@@@@@@-@@@@@@@@@@@@-@@@@@@@@@oo:+@@>",
">&@@+=-------------------------------------------------;;**:++@@",
"&@@++=+@%%%%%%%%%%-%%%%%%%%%-%%%%%%%%%%%%-%%%%%%%%%%%-%@@oo:+@@>",
">&@@+=+@&&&&&&&&&@-%&&&&&&&@-%&&&&%%&&&&@-%&&&&@&&&&@-&@@o :++@@",
"&@@===+@&&&&&&&&&@-%&&&&&&&@-%&&&&&&&&&&@-%&&&&&&&&&@-&@@o :==@>",
"===++=+@@@@@@@@@@@-@@@@@@@@@-@@@@@@@@@@@@-@@@@@@@@@@@-@@@oo:++==",
">&@@+=---------------------------------------------------**:+@@>",
"&@@++=+@%%%%-%%%%%%%%%%-%%%%%%%%%%-%%%%%%%%%%%%-%%%%%%%@@oo:++@@",
">&@@+=+@&&&@-%&&%&&&&&@-%&@&&&&&&@-%&&&&&&&%&&@-%&&&&&&@@oo:+@@>",
"&@@++=+@&&&@-%&&&&&&&&@-%&&&&&&&&@-%&&&&&&&&&&@-%&&@&&&@@oo:++@@",
">&@===+@@@@@-@@@@@@@@@@-@@@@@@@@@@-@@@@@@@@@@@@-@@@@@@@@@oo:==@>",
"===++=--------------------------------------------------;**:++==",
">&@@+=+@%%%%%%%%%%-%%%%%%%%%-%%%%%%%%%%%%-%%%%%%%%%%%-%@@oo:+@@>",
"&@@++=+@&&&&&&&&&&-%&&&&&&&@-%&&&&&&&&&&@-%&&&&&&&&&@-&@@oo:++@@",
">&@@+=+@&&&&@&&&&&-%&&&&&&&&-&&&&&&&&&&&@-%&&&&&&&&&@-&@@oo:+@@>",
"&@@++=+@@@@@@@@@@@-%@@@@@@@&-&&&&&&&&&@@@-@@@@@@@@@@@-@@@oo:++@@",
">&@===-----------------------------------------------------:==@>",
"===++=+@%%%@-%%%%%%%%%%-%%%%%%%%%%-%%%%%%%%%%%%-%%%%%%%@@oo:++==",
">&@@+=+@&&&@-%&&&&&&&&@-%&&&&&&&&@-%&&&&&&&&&&@-%&&&&%&@@oo:+@@>",
"&@@++=+@&&&@-%&%%&&&&&@-%&&&&&&&&@-%&&&&&&&&&&@-%&&%&&&@@oo:++@@",
">&@@+=+@&&&@-%&&&&&&&&@-%&&&&&&&&@-%&&&&&&&&&&@-%&&&&&&@@oo:+@@>",
"=======@@@@@-@@@@@@@@@@-%@@@@@@@@@-%@@@@@@@@@@@-@@@@@@@@@o======",
"&&&&&&+=#----------------------------------------------*==&&&&&&",
"&&&&&&&&=+%%%%%%%%%%%%%%%%-%%%%%%%%%%%%%%%-%%%%%%%%%%%oo=&&&&&&&",
"&&&&&&&&=+@&@&&&&&&&&&&&&@-%&&&&&&&&&&&&&@-%&&&&&&&&&@oo=&&&&&&&",
"&&&&&&&&=+@@@@@@@@@@@@@@@@-@@@@@@@@@@@@@@@-@@@@@@@@@@@oo=&&&&&&&"
};
