/* XPM */
static char *_88ff50ba3d14c5c997b1d7ae03ef2b0U4Ib08lZIOmZokdE[] = {
/* columns rows colors chars-per-pixel */
"64 64 8 1 ",
"  c #232825",
". c #2B3635",
"X c #3E3A35",
"o c #323C39",
"O c #3D5152",
"+ c #4B4F4C",
"@ c #595652",
"# c #6C7576",
/* pixels */
"@oo@XX@@XXXXXX@oo@@@XX@@@@@ooXXXXX@@@@@XX@o@XXX@@@@@@@XXX@@oo@@@",
"@@oXXXXXXXXXXX    @XXXX@XX@oo  XXXXX@XXXXXoXXXXXX@@@@XXXX oo@@@@",
"@@@ XXXXXXXXX  X   XXXXXXXXo@@  XXXXXXXXXXo XXXXXXXXXXXX  ooo@@@",
"oo@  XXXXXX O...  X  XXXXXX @@@   XXXXXXX o   XXXXXXXXX  X@@oooo",
"@ooo  XX ..O##++++.X  XXXX  oooO.....    ooo   XXXXXXX   @@@oo@@",
"@@@oooo ..#######++.X  XX  @@oO##O...++Xoo@@@oX  ......O@@@ooo@@",
"@@@@oo@O##########+.+X    @@oO######OO#Oo@@@oo@#+....OOOO@oo@@@@",
"@@@@@o@O##########++.+@oooooO#########OO#@@@o#OOO######OOOoo@@@@",
"@@@@@oO#####@@@@@++++.oo@@oo++###@@####OO@@oO############OOoXX@@",
"@@@@@oO####@@@@@XXX++ @@@@o +++#@@@@X++OOooO##############O.XXX@",
"@@@@@o@###@@@@@XXXXXX @@@@o X++X@@@XXX++o@@O###############.XXX@",
"@@XXX XXX@@@XXXXXXXXXoooooo  XXXX@XXXXX oooo###@@@@@#######.XXXX",
"XXXXX XXXXXXXXXXXXXX oooooo  XXXXXXXXXX o@@o@@@@@@@@@####++ XXXX",
"XXXXX XXXXXXXXXXXXXXooo@@@@   XXXXXXXX o@@@o@@@@@@@@@@##XXX  XXX",
"XXX   XXXXXXXXXXXXXooo@@@@@@X XXXXXXX o@@@oo@@@@@@@@@@@@XXX    X",
"XX  oXXXXXXXXXXXXXoooo@XX@@XX   X      XXX  oXX@@@@@@@@XXX  @   ",
"   @o XXXXXXXXX.OO@@@oXXXXXXX o            X XXX@@@@@@@XXX  o@@o",
"o@@@   XXXXXX+.#OOO#@oXXXXXXXX XXXXXX++.    X XXX@@@@@@XX  o@@@@",
"  @o X   XX ..##O#OO#@  XXXXX XXXXX ..+++++X  XXXXX@@XXXX X@@@@@",
"XX oXXXX oo###OO####OO@  XX   XXX .#########o  XXXXXXXXX  XXX@@@",
"XX o@XXXXoo##OO######OOoX   XXX  O###########o  XXXXXX   XXXXX@@",
"XX  XXXXXXo#O##XX@#####OXXXXXX  #############@o  XXX   X  XXXX@@",
"XX XXXXXXXo@O#XXXX@#####.XXXXX #######@@@@##@@o@o    XX@X XXXXXX",
"XX XXXXXX oX oXXXXXX####. XXXXo#####@@@@@@@@XXo@@@@XXXX o   XXXX",
"X  XXXXXX XXX XXXXXXX###@  XXX X+#@@@@@@@@@XXX o@XXXXX  oo   XXX",
"X  XXXXX XXXXX XXXXXXX@@@@  X  XXXX@@@@@@@@XXXX XXXX   @##@o   X",
"ooo       o  XX XXXXXXX@@@@    XXXXXXXX@@@XXXXX XXX  X#####@o   ",
"@@oooo ..##+. XX XXXXXXXXXX XX  XXXXXXXXXXXXXXX XX  #######@@@oo",
"@o@oo@O#####+. XX  XXXXXXXX    XXXXXXXXXXXXXXXX X o########@XX @",
"oo@@oo#######+  XX   XXXXXX @@@o XXXXXXXXXXXXXXo@o########@XXX  ",
"o@@@@o+++++++XX  X++.  XXX o@@@@oo XXXXXXXXXXXX  ######@@@@XXXX ",
"o@@@@ X++XXXXXX.....OOOooo  X@@@@X  XXXXXXXXX  X +####@@@@@@XXX ",
"o@@@@  XXXXXX ..O########  XXX@@XXX  OOOOOoo  XX +###@@@@@@@XXX ",
"o@@@@X        .O#########+..XXX@XX .+##OOOOoXXXX X+#@@@@@@@@XXX ",
"o@@@XX   XXX X@###########+..XXXX .++####OOO  XX XXX@@@@@@@@XXX ",
"oooX   .+.   XX@@@@@@######+. XXX ++#######O@  X XXXXX@@@@XXXXX ",
"oo   .++++.  XXX@@@@@@@@####+. X  X###@@###@@@  X XXXXXXXXXXXX  ",
"@o  .+++###   XX@@@@@@@@@####++  X@@@@@@@@@@@@X    XXXXXXXXXXX o",
"@@o ++####@@  XXX@@@@@@@@@######oo@@@@@@@@@@@@XX X  XXXXXXXX..oo",
"@@oo#####@@XX  XXX@@@@@@@@@#####oo X@@@@@@@@@@@X  X        .O#Oo",
"@@oo@##@@XXXXX  XXX@@@@@@@@@@##@o  XX@@@@@@@@@XXX XX oO#ooo##OO@",
"@oooXXXXXXXXXX  XXXXX@@@@@@@@@@@@  XX@@@@@@@@@XXXX Xo####@oO#O#@",
"@o@ XXXXXX    o  XXXXXX@@@@@@@XXX  XXX@@@@@@@@@XXX oo####@@OOO##",
"@oo  XX    X OOO. XXXXXXX@@@@XXXXX  XXXX@@@@@@@XXXXo@@##@@@#OO##",
"@@@o    XX OO###O.. XXXXXXXXXXXXXX   XXXXXXXXXXXXX o@XX@@@@@+.O@",
"XXX@oooooo########O. XXXXXXXXXXX      XXXXXXXXXXXX  XXXX@@XXX  @",
"XXXX@oo@@###########   XXXXXX    XXXX   XXXXXXXXX  X XXXXXXXX X@",
"XXXXXo XX##########XX   ......   XXXXXX    XXXXX  XX  XXXXXX   @",
" X   X XXX###@@@@@XXXX .....++.  XXXXX  XX     ooo  o  XXXX  Xoo",
"    XX XXXXXX@@@XXXXXX .++++++++  XXXX    ..XXXooo@@oo  X  .OOO@",
"XXX  X  XXXXXXXXXXXXXX X++++++++X  XX ..+++.. oo@@@@ooooooO###OO",
"@@@X  X   XXXXXXXXXXXooXXXXX+++XX    .#+++##OooXX@@@@o X@O######",
"@@@@@ XXX    XXXXXXX    XXXXXXXXXXX X++#####O@ XXXX@@X  .O#####@",
"@@@@@OO.. XXX        XX XXXXXXXXX   XX++###++  XXXXXXXX .####@@X",
"@@@@OO##+..XXXXX   XXXX  XXXXXXX  X  XX+++++X  XXXXXXXX ..++XXXX",
"@@@oOO###+..XX   X    oo     X  XXXX XXXXXXXX X  XXXXXX X.+XXXXX",
"@@oo +###++. X..OO@@@ooo@@ooo  XX   o XXXXXXX XX   XX   X  XXXXX",
"ooo XXX+++++ OO###O@oooo@@@ooX  .++#OO..XXX   XXX+....+XXX      ",
"ooo XXXXX++  #####Ooo@@o@@@@@@ .+####OO..   XX .....O+++X o     ",
"@@@o XXXXX  @@####+  @@@@@@@XXXO#########o   X.##++#OO.+X XXXXXX",
"@@@@o   X  @@@@@#+X  XXXX@@XXX .##++#####ooX .O#######O   XXXXXX",
"X@@@@@oooo@@@@@@XX   XXXXXXXX  X++XXXX++X  XoO####@@@@@ooXXXXXXX",
"XXXXXX   XXXXXXXX  X  XXXXXX    XXXXXXXX      +++X@XXXX  XXXXXXX",
"XXXXXXX   XXXXX   XXX   XXX  XX  XXXXXXX X  X  XXXXXXXX  XXXXXXX"
};
