/* XPM */
static char *dbd2e9100ce9479291d22b75a29407ceQRpHzSt7qMzvqo9V[] = {
/* columns rows colors chars-per-pixel */
"64 64 60 1 ",
"  c gray2",
". c gray4",
"X c gray5",
"o c #131313",
"O c #151515",
"+ c #191919",
"@ c gray12",
"# c #232323",
"$ c gray15",
"% c gray16",
"& c gray18",
"* c #313131",
"= c gray21",
"- c #393939",
"; c #3E3E3E",
": c #301B59",
"> c gray26",
", c #464646",
"< c #4E4E4E",
"1 c #555555",
"2 c #5B5B5B",
"3 c gray38",
"4 c #6F6F6F",
"5 c #717171",
"6 c gray46",
"7 c #7E7E7E",
"8 c #ED1C24",
"9 c #9C463D",
"0 c #9C5A3C",
"q c #EB721C",
"w c #EDC842",
"e c #3751B0",
"r c #4D6DF3",
"t c #818181",
"y c #848484",
"u c #8B8B8B",
"i c gray55",
"p c #929292",
"a c gray58",
"s c #9B9B9B",
"d c gray61",
"f c gray64",
"g c #A5A5A5",
"h c gray66",
"j c #ACACAC",
"k c #B2B2B2",
"l c #B4B4B4",
"z c #BBBBBB",
"x c #BCBCBC",
"c c #C3C3C3",
"v c gray79",
"b c #CDCDCD",
"n c #D2D2D2",
"m c #D5D5D5",
"M c #DDDDDD",
"N c #E1E1E1",
"B c gray93",
"V c #F1F1F1",
"C c gray98",
"Z c white",
/* pixels */
"x=lx=*-=****ll=*************ll***********l******=Xlx=*-=****ll=*",
"xo,oo+++o@$iB+5,oOOo1<o<<,ol,,,oOooOooOo*,,,oo,o<o,oo+++*@$i7+5,",
"CioOOo#@&&&$,$#,,OooOooOo,Ol,ooooooooooo*,,,,ooo$$oOOo#@,&&$&$#,",
"Ci,o++o$$$$$,$$$+OOo$$i$O,$Ci<Oo+oo+oo+o*o,,oooo$$,o++o$,$$$$$$$",
"Cii<iiii$$$$,$$i$O$$i$$$OoiCi,,,,ooOooOo*O,,oooo$$i<iiii,$$$$$$i",
"CiiiiiiiiiiiCiiiiiiiiiiiO<<Ci<<,2,,+oo+o*o,ooooo$$iiiiiiCiiiiiii",
"CCCCCCCCCCCCCiiiiiiiiiii<,<CiiiiiiiiiiOo*<o,oOoo%$iiiiiiCiiiiiii",
"iiiiiiiiZzlMZjst,665653OO$iCCCCCCCCCCCCl*o,,,,,oiiiiiiiiZzlMbjst",
"<<1+@+@zZmlvZZBMlxxlcxvxx,,CCiiiiiiCiii,l<,,,<,,1<1+@+@zZZZZZZBM",
",,,2,skbZglglts3,4ii7vi<1i$$$$iii<,c,,1,llllllll*llvlZZZZZZZZBZb",
"<iii13itBdxkkii4hkgihZii<,,,,,<ii<,x<,OooOoooOo,+,ii13it7dxkkiiM",
"iiii444gZi888f4swkxiiCiiiiiiiii,,<,l,iioooooooooi,ii444ghigxkf4Z",
"iiiii<4i,dx88zbhx4piiZiii$iiii$iii,l<iii$i$$$$$oa,iii<4i4dxnkzbZ",
",,,,2,siZ,gk88dk44iiqZ7iiiiiiiiiii,l,iiii$$$$oo$o*,,2,sihigkkddZ",
"xllllvCMZZ,Z88MZ8ZZZZZs47iiiiiiiii,l<,iiiii$ii$$O*,,,2i4ii4hs74Z",
"l,,,,,2227w,88,d8ZZZZZs7<,,<,,<,,,,l,,,,,,,,,,ooo*,,,,22272tkk,Z",
"V,#oo,,,,,t,88588ZZZZZMvl***llxllxllxlllllllllll>*;**lllllVllZNZ",
"C,5,,,5,qtt8q8t8Zzzgztpttt,,,,l,,,,,,,oooooo,lt$=$5,,,5,ptV,,tti",
"C,o,,,5tut8qqq888sjpspuututt,,*ot,tty5t$$$$otlu$v$o,,,5tutl,,,,2",
"V,o,ii,uu88qwqqq88i,uuut5uuut,*outuuuuuu$$$o$lu$=$o,ii,uu,l,,,,,",
"l,o,i,5turrqeqqeqrruuiutuuuuu,*ottuuy$uu$$$,#lu$$uo,i,5tu,l,,,,,",
"l,o,,,5,uerqewweqreiutwttttuu,*o,t$uttuu$$$ool$$$$o,,,5,u,l,,,,,",
"ll**lNllqerqewwewreii5qttttut,*o,tutytt$$$Ooo*,ooooo,5,,u,l,,,,,",
",,,o,55q5erwewwewreii5tttttt,o*,,,,,,,,,ooo,,liioo,o,55,5,llllll",
",,,,,,5,terwewwewreCCllllllllll,,,,,<,,<,ii,,lCCllllllNlVlllllll",
",,,iiiiiuerweeeewrei5,iillllllllCCCCl*llCCC**lCi,,,iiCiiu5,,,,,l",
",iiiiiiiieeeeeeeeee$iiiiliiiiiiiiiii,o*$$iioo,iii$iiiCiii5,,,,,l",
",iiii,iii;::eeee::$$iiiilii$iiiiii,,,o*$iiioo,,$i$iiiliii#,,,,,V",
",,iiiiiii;o::::::$$iiiiiCiiiiiii,,,,oo*$iii$ooo$$oiiiCiii#ot,ttC",
"o,,iiiiii*o$::::$$i,iiiiCiiiiiii,,,,oo*$$$$$oo,$.o,iiCiiioo$$utV",
"o,,,,,t5,l,o$99ooo,,,ii,l,,,,,,,,,,o,o*iii$$ooo$.o,,,lt5,,,o$$$*",
"lCC,**VNlllll00**llllllll,,,ooo,,,iii,CCCCCCll*,,CC,**VNlllllCC*",
"Ciiiii,,,,,,,00ool,,ooo*CCCCCClCCCCCCCCCCi,,oo,Cniiiii,,,,,l,,5o",
"Cii,iiiii,,,r00r,l,,iiiCCCCCCCC,Ciiiiiiii,,,,,iCiii,iiiii,,l,,,,",
"Cii,iiiii,,re00erl,iiiiii$iii$$$,,iii,ii,$$$ooiCiii,iiiii,,l,,,,",
"Ci,,iiiiiioee00eeliiiiiiiiiii$$$*iiiiiii,$i$o$iCii,,iiiiiiol,,,,",
"Cii,iiiiiioo:00:olii$ii$iiii$$$o*iiiiiiio$$$o$iliii,iiiiiio*,,,,",
"Ciiiiiiiii,oo00ooliiqiiiiii$$$oo,iiiiii,o$$$$$$*$$iiiiiiii,*o,,o",
"liiiiiiiii,,o99o,liiiiiii$$$$o,o,$i,,,oo$$$$$$il,iiiiiiiii,l*ll*",
"lllllCCCCCCl****ll,CClCC,,,,CCC,CCClllll,,*,,CCllllllCCCCCCl****",
",,iiii,,iiCiiiiiiiiiii$$$C,iiiiiiii,,iiiCi,iiii,,,iiiil,iiiiiiiC",
",,iiiiiiiiCiiiiiiiiiiiii,liii,,,iii,,iii,iiiiii,,,iiiiCiiiiiiiiC",
",,,iiiiiiiliiiiiiiiiiiiiiCiiiiiiiii,,i$o*,ii$i,,o,,iiiCiii,iiiiC",
",,,,,iiiiiCiiiiiiiiiiiiiiCiiiiiiii,,o$$oCiiiii,,o,,,,iCiiiiiiiiC",
"o,,,,,iiiiCii$$$oooo,o,,o*,iii,,i$oo$$$$Cii$i,,o ,,,,,Ciiiiii$$,",
"oooo,,,,iiCiii$$$i,oooooo*,iii,$$$oo$$$$Ciiii,oo ooo,,l,iiiiii$,",
"oooooo,,,,l,,$iiiiiiii,iiCCCC,*CCCll,,,CCCCll***X*****l,,,,,,$iC",
"lll******ll,,,iiiiiiiiiiiCCCiiiiiiCCiiiiii,,,,,,,l,ooo***lllllCC",
"l,,,,,,lllllllCCCCCCCCCCCCCC$iiiiiCCiiii,,,,iiiiil,,,,,,,,,,,,ii",
"Ciiiiiiiiiii$iiiiCiiiiiii$iii,iiiiil,iiiiiii,,,,iCiiiiiiiiii$iii",
"CiiiiiiiiiiiiiiiiC,ii,iii$i,,,iiii,l,,ii,,,,,,oo$,iiiiiiiiiiiiii",
"Cii,,,,,,iiiiii,,l,,,,,iii,,,,,,,,,l,ooooooooooo$,i,,,,,,iiiiii,",
"l,,oooooo$$ooooool,,,,,,,oo,,,,,,,,l,,,ooooooooo,l,oooooo$$ooooo",
"l,,,ooooooooooooo*ooooooo,oooooooo,l,,,,ooooooooo*ll************",
"***llll**************lll**********lllCCCCCCClllC,,*,,,,ooo**oooo",
",,,,,,iiiiiiil,,,,iiiiiiiii,l,,iiiiiiii,iiiC,,ii,,,,,,iiiiiCi,,,",
"iiiiiiiiiiiiil,iiiiiiiii,,,,l,,i,iiiiiii,,,l,,i,iiiiiiiiiiiCi,,i",
"iiiii$i,,,i,,l,i,,ii,,,,,iiiC,iii,ii,,,,,,,l,,i,iiiii$i,,,il,,,i",
",$iiiiiiii,,,l,,,,i,iiiii,,,l,,,iii,,,,,,,,*o,,,o.iiiiiiii,l,,,,",
",,,,,,,,,,,,,l,,o,,,,oooo,,,l,,,,,,,,,,,,,o*,,,ooo,,,,,,,,,l,,,,",
",o,,,ooooooool,,ooooooooooool,,o,,ooooooooo*,,,oo ,,,oooooo*o,,,",
"loooooooooo*ll,,,ooooooooooollloooooooooooolloo,o oooooooo**,,,,",
"*ooooooooo,*****oooooooooolllll,ooooooooo,,lloooooooooooool**ooo",
"************lllll**********llllll************ll*X***********llll"
};
