/* XPM */
static char *_3c1328122e0444bbcc4372a3e1d9c2as2PaMPlbeguotUvx[] = {
/* columns rows colors chars-per-pixel */
"64 64 131 2 ",
"   c #131313",
".  c #151515",
"X  c #191919",
"o  c gray12",
"O  c #242B14",
"+  c #262D16",
"@  c #232323",
"#  c gray15",
"$  c gray18",
"%  c #353C25",
"&  c #313131",
"*  c gray21",
"=  c #393939",
"-  c gray24",
";  c #334015",
":  c #344215",
">  c #374518",
",  c #3E452E",
"<  c #415415",
"1  c #4D6717",
"2  c #424F24",
"3  c #435124",
"4  c #4A572C",
"5  c #4B592C",
"6  c #464D35",
"7  c #4E6122",
"8  c #56692A",
"9  c #5A673C",
"0  c #5B683D",
"q  c #5C6A3D",
"w  c #607929",
"e  c #647738",
"r  c #6A7D3E",
"t  c #464646",
"y  c #4E4E4E",
"u  c #505740",
"i  c #515841",
"p  c #585F48",
"a  c #555555",
"s  c #5B5B5B",
"d  c #5E654E",
"f  c #627043",
"g  c #677548",
"h  c #6C7A4D",
"j  c #697059",
"k  c gray38",
"l  c gray43",
"z  c #757C65",
"x  c #717171",
"c  c #7E7E7E",
"v  c #6A8A20",
"b  c #6C8636",
"n  c #7A9B30",
"m  c #7C8A5D",
"M  c #7F8D60",
"N  c #798069",
"B  c #96AF5F",
"V  c #99B557",
"C  c #8B996C",
"Z  c #838A73",
"A  c #848B74",
"S  c #878E77",
"D  c #8C937C",
"F  c #8F967F",
"G  c #919F72",
"H  c #929F74",
"J  c #8EA162",
"K  c #96AF60",
"L  c #94A768",
"P  c #95A869",
"I  c #97B060",
"U  c #92A073",
"Y  c #9CA97E",
"T  c #9EAC7F",
"R  c #A1BA6A",
"E  c #A6B97A",
"W  c #AFC779",
"Q  c #818181",
"!  c #848484",
"~  c #8B8B8B",
"^  c gray55",
"/  c #909780",
"(  c #929982",
")  c gray57",
"_  c gray60",
"`  c gray61",
"'  c #9AA18A",
"]  c #A8B689",
"[  c #AAB88B",
"{  c #A5AC95",
"}  c #B1BF92",
"|  c gray64",
" . c #A7A7A7",
".. c gray66",
"X. c #AEAEAE",
"o. c #B3BAA2",
"O. c #B2B2B2",
"+. c #B4B4B4",
"@. c #BBBBBB",
"#. c #BCBCBC",
"$. c #B0C384",
"%. c #B5C396",
"&. c #B7C598",
"*. c #B8C699",
"=. c #BAC1AA",
"-. c #C2D0A3",
";. c #C0C7B0",
":. c #CAD1BA",
">. c #D4E3B6",
",. c #D6E4B7",
"<. c #E1F4B5",
"1. c #C3C3C3",
"2. c gray79",
"3. c gray81",
"4. c #D7DEC7",
"5. c #D2D2D2",
"6. c gray87",
"7. c #DAE1CA",
"8. c #DCE3CC",
"9. c #E8F6C9",
"0. c #EAF8CB",
"q. c #ECFACD",
"w. c #E6EDD6",
"e. c #E9F0D9",
"r. c #E1E1E1",
"t. c #EEEEEE",
"y. c #F1F8E1",
"u. c #F5FCE5",
"i. c #F1F1F1",
"p. c gray98",
"a. c white",
/* pixels */
"1.+.& * & & * & & * & & * & #.* +.#.* & = * & & & & +.+.* & & & & & & & & & & & & & +.+.& & & & & & & & & & & +.& & & & & & & & ",
"&   .     .     .   t y +.t y   t     X X X   o # ^ c * x t   . .   a y   y y t & t t t t   .     .     .     t +.t     t   t t ",
"*   t X     X     . t t #.t ^ ^   . .   @ o $ $ $ # $ t @ t t .     .     .   t * t t                         t +.t t           ",
"& t .     .   # F F ^ ^ p.t ^ ^ t   X X   # # # % % # t # # X . .   # # ^ # . t t ^ ^ y .   X     X     X       +.t             ",
"1.    s U % # F F U F ^ p.t ^ ^ ^ y ^ ^ U F # # # 3 % t # ^ # . # # ^ # # % +   p.^ ^ t t t t     .     .     . +.t             ",
"& p . : % ^ ^ ^ U F ^ F p.t ^ ^ ^ F ^ ^ ^ ^ ^ ^ ^ ^ ^ y.^ ^ ^ ^ ^ U F ^ ^ ^ > p #.^ ^ y y t s t t X     X       +.              ",
";., 5 * +.o.-.o.+.* =.+.1.a ^ ^ ^ F U ^ ^ F U F ^ ^ ^ p.^ ^ F ^ ^ ^ ^ ^ ^ ^ y t =.^ ^ ^ ^ ^ ^ ^ ^ ^ ^ ^ .     y & t   .     .   ",
"O > + : d f r g * y i y * t ^ ^ ^ ^ F U ^ ^ -.&.+.6.:.a.a.t.o.,.r.r.8.>.:.* * t p.^ ^ ^ ^ ^ ^ ^ ^ ^ ^ ^ ^ t     +.t t t t   t t ",
"  % 3 F ^ q f i * p y : ;.1.#.#.1.* = 6 - a.a.u.a.a.a.0.w.l t p f t a *.h y y % t ^ ^ ^ ^ ^ ^ ^ ^ ^ ^ ^ ^ t t y +.+.+.#.+.+.#.+.",
"  # F ^ ^ ^ + . & # 3 % .   t t t s t _ O.a.( { +. .+.Q _ k t l ( ) c 2.F y a ^ 0 u t t p.p.p.#.+.1.+.+.1.+.+.+.+.+.+.+.+.+.& +.",
"    ^ ^ ^ ^ + : * ^ # # a a y ^ ^ ^ g j ^ t.A R =.O.O.^ ^ l ..O. .) ..a.^ ^ y t t t t t y ^ ^ y t #.p i .     .       .   t . & ",
"  . ^ ^ ^ % : a & . # ^ ^ ^ ^ F ^ ^ l l l a...^  .=.O.| l _ ` O.#.) ) y.U ^ ^ ^ ^ ^ ^ ^ ^ t q p t +.t U F                   t & ",
"      # # # . t =.. # ^ ^ ^ ^ F U ^ ^ p m y.l ` =.5.O.@.3...#.l ) ^ ^ a.^ ^ ^ # ^ ^ ^ F # ^ ^ ^ t +.y ^ ^ F # ^ # # # # #   y & ",
"t .     . t y p +.y t t y t t t i q s t T 0...^ { O.O.` ` O.l l ^ ^ ..u.Z F ^ ^ ^ ^ ^ F U ^ ^ F q o.t ^ ^ ^ ^ # # # #     #   & ",
"+.+.& & & & * & #.#.+.#.#.+.#.+.+.o.+.2.p.4.^ ^ l [ ' c l ` ..] ( ^ #.a.T z c ^ ^ ^ ^ ^ F U ^ ^ q } y t F ^ ^ ^ ^ # ^ ^ # #   & ",
"&               t t t t t t t t +.+.+.+.2.2.s c s Q O.O.i ` O.` ^ #.#.a._ c p t t y t t y i t t t } i t t q i t t t t t       & ",
"&   # #       Q Q Q t ^ ^ F S t - & & +.o.} +.+.i.+.+.a.7.q.a.u.q.q.y.a.6.2.+.& & & +.+.#.} o.#.+.+.*.o.+.+.+.+.+.+.+.+.+.+.& & ",
"&   # #   t Q ~ Q C S Q Q ~ G i r.t i i x t ) Q Q t t C S / q.@.%.E %.Q ) S Q Q t t i t t +.t t i q t t O           +.t Q # # # ",
"&   # # # Q F ~ x # ~ # Q ~ G i 4 i t q N Q F Q i t t t t s e._ X.) Y ) ~ ~ C F Q Q i q   & S q S Q ! x Q # % % #   i.t ~ # Q # ",
"&   # # # Q F G ~ ~ D L L F Q t & q F ^ t F ~ t i q t t i q o.^ ^ t ~ ~ ~ Q x ~ ~ ~ Q i : & ~ C G ~ L G ~ ~ # 3 %   t t ~ # # # ",
"&   # # @ t t S C S x L B ~ t 0 5 i ^ i x Q ~ t t i q t t q } _ ^ G G ^ ~ Q ~ ~ ~ ~ ~ t O & Q S F ~ ! # G F # # # i - t ~ # # ~ ",
"+.        t t t i i q t 0 L q i w e t t N t ~ t t t i t t t o.~ ^ ^ G S ^ Q Q Q Q ~ ~ t . & t S 3 ~ Q S G F # # #   & t # # # # ",
"+.+.& & & p.p.p.p.+.o.} +.o.} } & O i x t q D t t t t t t t +.Q ~ ^ ^ N F S Q Q Q ~ Q t   & t S B J ! Q C 3 # # +   &   t       ",
"    t t t ^ ^ ^ ^ & +.} } +.+.o.+.  t M N t x t t t t t t i } t C F ^ x Q C S Q Q Q t   : o.t t t e i t t i       q o.+.p.p.& & ",
"  # # ^ ^ ^ ^ ^ ^ & +.+.+.+.+.+.o.} +.+.r.+.i.+.+.+.+.+.+.o.+.t t ^ ~ t t t t i t i t t t +.+.+.+.o.#.o.+.#.+.p.p.+.+.+.p.p.+.+.",
"  # ^ # # ^ ^ ^ ^ &   t   O i q t ^ ^ ^ ^ ^ ~ x +.+.+.+.+.o.} o.i.y.>.o.p.p.+.+.+.o.} +.+.o.9.F ^ ^ t   i } ^ ^ ^     t ^ ^ t +.",
"  # # ^ # ^ ^ ^ ^ &         t ^ ^ ^ F ^ ^ ^ ^ x +.t t t t t i G # # U U ^ ^ o.^ ^ ^ F U ^ ^ U U ^ F 0     t # ^ ^     t ^ ^ ^ & ",
"  # # # ^ ^ ^ F F &       t t ^ F ^ ^ t ^ ^ ^ @ +.t t t t Q ~ F # # ^ F ^ ^ +.U F # ^ H F U F F t t q < O t F ^ ^     t t # ^ & ",
"t     3 % ^ ^ ^ U ,         t t ^ ^ ^ ^ ^ ^ ^ @ & Q t Q Q ~ # # # ^ ^ ^ ^ ^ p.U F ^ F ^ U F t t t t     O t ^ ^ ^ #     O % # & ",
"i         ^ ^ ^ ^ p.i         t t ^ ^ ^ ^ ^ ^   & # # ~ Q Q # # ^ t F U F ^ p.^ ^ ^ F U ^ ^ e b i t       t # # 3 %     t 3 % & ",
"i :     O U F ^ ^ p.t t t t   t t t t t Q x t t +.  # # #       t t t ^ F q +.t i q i i q t t q q   t O   y.^ ^ # #       # # , ",
"+.o.} +.+.9.9.p.p.o.+.+.+.o.o.p.p.t & & i.r.+.+.+.i i ~ ~     t t t t t i i } +.+.} 5 & , o.+.+.9.p.p.+.9.9.9.p.p.y.} o.& t t +.",
"+.t O t t t i t ^ U P i ^ ^ U F ^ p.^ ^ t q i o.} o.} o.r.& & +.+.+.& & & & y.p.p.^ F ^ t ^ 9.y.^ ^ ^ ^ ^ ^ F U t t : 5 # F H t ",
"&     t t t i t ^ ^ ^ ^ ^ ^ ^ ^ F +.F U P F ^ +.} $.o.+.o.+.+.+.+.t ^ ^ ^ ^ ^ ^ ^ ^ ^ ^ ^ # ^ y.U F F ^ ^ ^ ^ i t q i o.^ ^ q e ",
"&       t i e q t ^ F U F ^ ^ ^ F o.F U ^ ^ F q i t i i t t t t o.F ^ ^ ^ ^ ^ # ^ F U # # 3 % +.^ ^ U i ^ ^ i # # #   & ^ ^ t t ",
"&         t t i q t t q U ^ ^ F i $.U F P P P P : t t i q i t i y.U F ^ ^ ^ ^ ^ ^ ^ F # # #   p.^ F ^ ^ F ^ i 3 ^ # ; b F ^ t t ",
"&             i i t t t i t ^ ^ U } P U F U I U O ; i q e i   t 9.F # F ^ # ^ ^ ^ ^ % 7 #   O 9.F ^ ^ ^ ^ ^   % 3 #   0 U t t i ",
"&               t t t t i i ^ ^ ^ p.F F ^ ^ F F i O 1 e i O : i p.^ F ^ ^ ^ ^ ^ ^ # # % :   # 9.U ^ ^ F ^ t   # % # # t 2       ",
"& t             : i t i q q i ^ ^ p.^ ^ ^ ^ ^ F e q O q i : e q p.^ F ^ ^ ^ ^ # # # #   i   # t F t t t : O # # # # # t p.+.+.+.",
"& +.+.+.+.o.o.o.p.p.+.+.+.+.+.o.+.+.+.p.p.y.<.9.p.o.5 , & 5 } o.t y.p.} y.p.t t t t p.p.p.t p.p.p.+.+.+.+.+.t t & t t y.9.+.+.+.",
"# ^ U F ^ F U U F F } i t i t t ^ ^ ^ ^ t t ^ ^ ^ y.F ^ ^ ^ F ^ ^ ^ U F # # # ^ +.^ ^ ^ ^ ^ ^ F U t t ^ ^ ^ p.^ t ^ ^ ^ ^ t t +.",
"# ^ ^ # ^ ^ F U ^ F } q t t i t ^ ^ ^ ^ ^ ^ ^ F F p.^ ^ ^ ^ F U ^ ^ ^ ^ ^ ^ t t p.^ ^ t t t ^ ^ ^ t t ^ ^ ^ t ^ ^ ^ ^ ^ ^ i t +.",
": t ^ F 3 F ^ F ^ ^ +.O t t t q i ^ ^ ^ ^ ^ ^ ^ t p.^ ^ ^ F U ^ ^ ^ ^ ^ ^ ^ ^ ^ p.^ ^ ^ ^ ^ ^ ^ ^ i t ^ #   & t ^ ^ # ^ t t   +.",
"O : ^ ^ U U # ^ F ^ +.      t t t t t ^ ^ ^ ^ ^ ^ p.^ ^ ^ ^ ^ ^ F F F ^ ^ ^ ^ ^ p.^ ^ ^ ^ ^ ^ ^ t t   # #   p.^ ^ ^ ^ ^ t t   +.",
"  O   t ^ F ^ ^ ^ U } :       t t t t t ^ ^ ^ ^ ^ p.^ # # 3 O O     q O t t     o.F ^ ^ t t ^ #     # # # # p.^ ^ # ^ t t   : o.",
"t       t t t t t t +.              t t t t ^ ^ ^ p.F ^ # # # ^ t       < O     +.U F ^ t # # #     # # # % y.^ ^ ^ ^ i       +.",
"        O q t t t t +.t O               t t t t t +.o.0 p.p.y.9.y.y.p.p.+.p.p.p.p.p.p.9 4 y.p.p.+.} u t t p.9.F ^ t t O :     o.",
"& & & +.& & , , +.+.+.t t t t t t             t t +.+.o.U ^ ^ U U H <.y.^ F U P P H H F U P H ^ ^ p.^ ^ ^ ^ p.p.o.+.+.+.o.} +.+.",
"+.t q i ^ ^ F 9.y.p.y.o.+.+.+.+.+.+.+.+.+.+.+.+.+.+.+.+.F U F ^ F ^ <.<.P K V P ^ ^ 7 P F ^ H P ^ p.F U F ^ t t t t ^ ^ ^ F ^ t ",
"& t t t ^ ^ U F ^ F ^ U F ^ ^ ^ ^ p.^ ^ ^ ^ ^ ^ ^ ^ % ^ ^ ^ ^ ^ ^ ^ F 9.H P U % F P P e H F ^ F U +.t U U ^ ^ F ^ ^ t t t t t t ",
"5   t 0 q i t t t t ^ ^ ^ % ^ ^ ^ p.^ ^ ^ ^ ^ ^ ^ ^ F U ^ ^ F P e ^ F $.U F K v K e b q ^ F F ^ i +.t t F ^ t i e i t t         ",
", :   i b q   i e i t t ^ ^ ^ ^ ^ +.t t i i t ^ ^ ^ ^ F U t t q q t t W b U H V n e i 0 i t q e i +.t : O       : O   O O       ",
"& O     O e t t q b i t i t t t q ,       : O # #       O     t 0 i t +.e 0 t   O i i t q e i t i +.t i q     : O   O   : O t t ",
"&         O       O   t t e i t t +.          O                 O :   & O : O t O O < :         i } +.+.} } , & & & & & & & , & ",
"+.& & & , 5 & & & & & & & , 5 & & o.} o.+.& & & & & & & & & & , 5 , 5 +.+.} 5 , 8 8 , , & & & & +.o.} ^ F V U ^ F P o.+.t ^ ^ ^ ",
"t t t t t t t ^ F U ^ t t +.i q t t q q ^ ^ F ^ ^ ^ ^ t +.t t t ^ ^ F ^ ^ ^ P F ^ t q W 0 ^ ^ ^ ^ ^ F ^ ^ i P ^ ^ U b o.^ F t t ",
"t ^ ^ ^ ^ ^ F ^ ^ ^ ^ t t +.^ F ^ ^ ^ F ^ ^ ^ U F ^ ^ t +.^ ^ ^ ^ F ^ F ^ ^ t t t i i +.t F t ^ ^ ^ ^ ^ ^ ^ i t t t i +.^ t q i ",
"t ^ ^ ^ ^ ^ ^ ^ t t i t t +.^ ^ ^ ^ ^ # ^ t t t ^ t t t +.^ t t ^ ^ t i q i q F U F ^ +.^ ^ ^ t ^ ^ t t t i q t t t t +.^ t t t ",
"t t t ^ ^ ^ ^ ^ t t t   t +.t # ^ ^ F U ^ ^ ^ ^ t t t t +.t t t ^ t ^ ^ F U ^ t q q t +.i t ^ ^ ^ t t t t t t t t O : +.t t     ",
"    t t t t t t t t       +.t t t t t t t t t t t t t t +.t   t t t t     O   i t i t +.t q i t t t t t t t t i     t +.t       ",
"    t t t t t             +.t   t t t   O             t +.t                         t +.t   t t                     t o.t       ",
"+.    t               & +.+.t                       t t +.+.+.                  O : t +.+.                        t +.&   t     ",
"+.                    & +.+.& &                 t   & & & & &                   t t t +.+.t                   t t t +.& &   t t ",
"+.+.& & & & & & & & & +.+.+.& & & & & & & & & & & & +.+.+.+.+.& & & & & & & & & & +.o.+.+.+.+.& & & & & & & & & & & & +.+.& & +."
};
