/* XPM */
static char *_7e1e652e4a24c8fcdb6794540edde1fL0iJzQw678RmE2dG[] = {
/* columns rows colors chars-per-pixel */
"64 64 52 1 ",
"  c #131313",
". c #151515",
"X c #191919",
"o c gray12",
"O c #232323",
"+ c gray15",
"@ c gray18",
"# c #313131",
"$ c gray21",
"% c #393939",
"& c gray24",
"* c #301B59",
"= c #464646",
"- c #4E4E4E",
"; c #555555",
": c #5B5B5B",
"> c gray38",
", c gray43",
"< c #717171",
"1 c gray45",
"2 c #7E7E7E",
"3 c #ED1C24",
"4 c #9C463D",
"5 c #9C5A3C",
"6 c #EB721C",
"7 c #EDC842",
"8 c #3751B0",
"9 c #4D6DF3",
"0 c #818181",
"q c #848484",
"w c #8B8B8B",
"e c gray55",
"r c gray57",
"t c gray60",
"y c #9D9D9D",
"u c gray64",
"i c #A7A7A7",
"p c gray66",
"a c #AEAEAE",
"s c #B2B2B2",
"d c #B4B4B4",
"f c #BBBBBB",
"g c #BCBCBC",
"h c #C3C3C3",
"j c gray79",
"k c #CECECE",
"l c gray87",
"z c gray89",
"x c #EEEEEE",
"c c #F1F1F1",
"v c gray98",
"b c white",
/* pixels */
"hd#$##$##$##$#g$dg$#%$####dd$#############dd###########d########",
"# .  .  . =-d=- =  XXX o+e2$<= .. ;- --=#==== .  .  .  =d=  = ==",
"$ =X  X  .==g=ee .. Oo@@@+@=O==.  .  . =$==            =d==     ",
"#=.  . +eeeev=ee= XX ++++++=++X.. ++e+.==ee-. X  X  X   d=      ",
"h  :e++eeeeev=eee-eeee+++++=+e+.++e+++. vee====  .  .  .d=      ",
"#-. +eeeeeeev=eeeeeeeeeeeeeveeeeeeeeee.-gee--=:==X  X   d       ",
"h##$ddjdd$gdh;eeeeeeeeeeeeeveeeeeeeeee-=geeeeeeeeeee.  -#= .  . ",
" .. ;--;$-=-$=eeeeeeeejfdlkbbxdzzzzzk$$=veeeeeeeeeeee=  d==== ==",
" ++ee=-=$--.hhggh$%%&bbbbbbbx,=--=;g:--+=eeeeeeeeeeee==-dddgddgd",
" +eeee..#+++. ===:=tsbeidid0t>=,er2je-;e====vvvgdhddhddddddddd#d",
"  eeee. $e++;;-eee;>ex2ygssee,psirpbee-=====-ee-=g-=.  .   . =.#",
" .eee+.;#.+eeeeeee,,,bpe333u,t7sgrrveeeeeeeee==-=d=ee         =#",
"   +++.=g.+eeeeeeee-,b,yg33fkpg,reebeee+eeee+eee=d-eee+e+++++ -#",
"=.  .=--d-==-=====:=tbpeis33ys,,ee6b2eeeeeeeeeee=d=eeee++++  + #",
"dd####$#ggdggdgddddjvlee,p33,y3peegbt,2eeeeeeeee=d-=eeeee+ee++ #",
"#       ========ddddjj:27033=y3yeggbt2-==-==-====d==========   #",
"# ++   000=eew0=&##dddddcd33z33bbbbbljd###ddgddgddgddddddddddd##",
"# ++ =0w00000ww=z===<=60036303bffif0r000=====d======      d=0+++",
"# +++0ww<+w+0ww=#===<0w03666333tartrww0w00== #0=00q<0++++ c=w+0+",
"# +++0wwwwwwww0=#=ee=ww336766633e=www0<www0= #w0wwwwww+++ ==w+++",
"# ++O==000<www==#=e=<0w9968668699wwew0wwwww= #00wwq+ww+++=&=w++w",
"d    ========w==#===<=w8968778698ee070000ww=.#=0+w00ww+++ #=++++",
"dd###vvvvddddddd# =<==68968778798ee<60000w0= #=0w0q00+++. # =   ",
"  ===eeee#ddddddd =<<6<8978778798ee<000000=  d========   =ddvv##",
" ++eeeeee#ddddddddddzdc8978778798ew==========dddddgddgdvvdddvvdd",
" +e++eeee# =  ===eeeeew8978888798vzdvvddddddddveee= =deee  =ee=d",
" ++e+eeee#    =eeeeeeee8888888888+eeeedeeeeeeeeeee=  =+ee  =eee#",
" +++eeeee#   ==eeee=eeeO**8888**++eeeedee+eeeeee===  =eee  ==+e#",
"=  ++eeee#    ==eeeeeeeO#******++eeeeeveeeeeee====   =eee+   ++#",
"=    eeeev=    ==eeeeee #+****++e=eeeeveeeeeee====   =++++  =++#",
"=    eeeev==== =====0<==d +44   ===ee=d========== =  vee++   ++#",
"dddddvvvvddddddvv=##czddd==55  =======dddd###dddvvvdvvvvvvdd#==d",
"d= =====eee=eeeeevee===dddd55##ddd####vvveee=evveeeeeeee== #+ee=",
"#  =====eeeeeeeeedeeeeeddd9559ddd=eeeeeeeeeee+eveeeeeee====dee==",
"#   =====eeeeeeeedeeeee==985589=deeeeee+eee++++deee=ee=+++ #ee==",
"#    =======eeee=deeeeee 885588=veeeeeeeeee+++ veeeeee=+e+ =ee==",
"#      =======eeedeeeeee  *55* =ve+ee+eeee+++  veeeeee +++ =e===",
"#       ======eeeveeeeee=  55  =ve6eeeeee+++  +veeeee= ++++=+   ",
"#=       ======eeveeeeee== 44 ==veeeeee++++ = +=e===  +++++=vddd",
"#dddddddvvdddddddddvvvvvvd####dd=vvdvv====vvv=vvvddddd==#==vvddd",
"+eeeeeeeeed=====eeee==eeeveeeeeeeeee+++edeeeeeeee==eeeve=eeee==d",
"+ee+eeeeeed=====eeeeeeeeeveeeeeeeeeeee==vee===eee==eee=eeeeee==d",
" =ee+eeeeed =====eeeeeee=veeeeeeeeeeeeeeveeeeeeee==e+ #=ee+e== d",
"  eeee+eeed   =====eeeeeeveeeeeeeeeeeeeeveeeeeee== ++ veeeee== d",
"   =eeeeeed    =====eeeeeve+++    = ==  deee==e+  ++++vee+e==  d",
"=   ======d       ====eeevee+++e=       deee=+++  ++++veeee=   d",
"     =====d=        =====dd=vvvvvvvvdvvvvvv=#vvvdd===vvee==    d",
"###d####ddd======      ==dddeeeeeevveeeeeeeeeeeeeveeeevvdddddddd",
"d===eeevvvvdddddddddddddddddeeeeeevveeeeee+eeeeeeveeee====eeeee=",
"#===eeeeeeeeeeeeeveeeeeeee+eeeeeeeeveee+eee=eeeeed=eeeeeee======",
"# ========eee+eeeveeeeeeeeeeeeee=eedeee+e===eeee=d==ee======    ",
"#  === =====eeeeed=====eeeeee======d=eee=========d=             ",
"#    ============#     ++      ====d===  ========d===         ==",
"#          ======d                 #   =        =ddddd##########",
"d################dddd##############ddd##########dddeeeeeeedd=eee",
"=======eeee==d======eeeeeee=d===eeeeeeeee==d=eeeeeeee=eeee=dee==",
"=eeeeeeeeee==deeeeeeeeeeeee=deeeeeeeee=====d=e=eeeeeee=====de===",
"=eeeeeee=====deeeee+e===e===de==ee=====eeeedeee=ee=========de===",
"===eeeee=== =d=+eeeeeeee====d===e=eeeee====d==eee========  d==  ",
"  ========   d==============d= ====    ====d============  =d=   ",
"  =====      d= ===        =d=            =d= ==          =d=   ",
"d  =       #dd=           ==ddd           =dd            =d# =  ",
"d          #dd##        = #####         ===dd=         ===d## ==",
"dd#########ddd############ddddd##########dddddd############dd##d"
};
