/* XPM */
static char *f75fa0cbacc24aaff88a6aa721ee2b2cLbM3Kq8SFo2lh81G[] = {
/* columns rows colors chars-per-pixel */
"64 64 38 1 ",
"  c #090505",
". c #0C0908",
"X c #0E0C0C",
"o c #10090A",
"O c #110E0D",
"+ c #150D0C",
"@ c #1E110D",
"# c #0B0B14",
"$ c #151212",
"% c #1A1111",
"& c #1E1312",
"* c #1D1614",
"= c #2F1708",
"- c #3D1E05",
"; c #241A1A",
": c #231E1D",
"> c #331F1D",
", c #29211F",
"< c #3B2419",
"1 c #1A1A30",
"2 c #142836",
"3 c #2B2C2C",
"4 c #322C2C",
"5 c #3E2A29",
"6 c #323C39",
"7 c #4D2306",
"8 c #4A2A1F",
"9 c #5C2F10",
"0 c #733814",
"q c #492E2C",
"w c #583F3F",
"e c #696A6A",
"r c #95470B",
"t c #8F563B",
"y c #DF7126",
"u c #306082",
"i c #CBDBFC",
"p c white",
/* pixels */
"3333333#3333333333333#=99<<99<<<<<<<<<<<933333#=999<<<<33333#=99",
"9993222#@<<<<<<932222#=999<<<<9999999999932222#=999999933222#=99",
"<<<3222#=999999932222#@<99999999999<<<<9932222#@<99999933222#=99",
"tyyeuuu10yytttyyeuuuu10tttttttttttttyyttteuuuu10yttttttteuuu10tt",
"yyyeuuu18tttyttteupiu10yyyyyyyyyttyyyyyyyeupiu10yyyyyyyyeuuu10yy",
"000euuu100000000eue6u10000000000000000000eue6u1000000000euuu1000",
"777euuu177777777euuuu17777777777777777777euuuu1777777777euuu1-77",
"80711111O;;;;;;;111111&OOOOO$;;;;;;;;;$$;111111$$;;;;;;$11111-00",
"887&&O$;;;;;&&&&70007XOO&&OO%%;;;&&;;;;$$o70807O;;;;;;;;;$$O>700",
"ytr&&O$;;;;&&&&r0807..&&&&O.%%%;&&&&+%%$$  70807;;;;;;;;;;$X+ryy",
"ytr&&O&;;;&&&&ryt07++.&&&&O.+%%+&&&+++%%O&&$70tyr;;;;;;;;;;X+rtt",
"ytr++.+++&&&+ryt07+++OOOOOO..++++&+++++.OOOO;70tyr&&;;;;;;;X+ryt",
"ytr++.++++++ryt07+++.O,,,,,**>>>>>>>>>>*O&&O&&70tyr&&;;;;%%.+rtt",
"ytr++.+++++ryt07++>>,,,qqqq***>>>>>>>>*,qq&O&&&70yyr&&;;+++..rty",
"yyr...++++ryt07+++>,,,qqqqqq>*>>>>>>>*,qqq,,&&&&70yyr&&&+++..rty",
"eeeeO++++ryt07+++>,,,,q>>qq>>***>******>>>**,++&&70tyr&+++..eeee",
"uuu1O.++ryt07++X44qqq,>>>>>>>*,************>*>++&&70tyr+++..euuu",
"uuu1...ryy07+%Xw444wq,>>>>>>>>*>>>>>>55:****>*>++&&70tyr+..Oeuuu",
"1111.+ryt07.XXww4w44wq**>>>>>*>>>>>*::55555>**>>>++&70tyr.+&e111",
"007O+ryt07O;ww44wwww44q**>>***>>>*:wwwwwwwww,**>>>>++70tyr+++700",
"007Oryt07OOww44wwwwww44,>***>>>**4wwwwwwwwwww,**>>>>++70tyr++708",
"eeeryt07++Ow4ww>>qwwwww4>>>>>>**wwwwwwwwwwwwwq,**>>>...70tyr+eee",
"iu1yt07+++Oq4w>>>>qwwwww:>>>>>*wwwwwwwqqqqwwqq,q,****++&70yyreee",
"6u1y07+++.,>*,>>>>>>wwww:*>>>>,wwwwwqqqqqqqq>>,qqqq>>++.O70yyeue",
"uu107++++.>>>*>>>>>>>wwwq**>>>*>5wqqqqqqqqq>>>*,q>>>>>..OO70yeuu",
"1117++++.+>>>>*>>>>>>>qqqq**>**>>>>qqqqqqqq>>>>*>>>>***&;;&70e11",
"007......*,**>>*>>>>>>>qqqq****>>>>>>>>qqq>>>>>*>>>**>w;;;;&7700",
"007OOO.XXww5:*>>*>>>>>>>>>>*>>**>>>>>>>>>>>>>>>*>>**www;;;;&&708",
"yyrOO&$;;www5:*>>**>>>>>>>>****>>>>>>>>>>>>>>>>*>*,wwwww;;;&+708",
"yyr&OO;;wwwww5**>>***>>>>>>*qqq,*>>>>>>>>>>>>>>,q,wwwwww;;&++ryt",
"yyr&&O%%55555>>**>55:**>>>*,qqqq,,*>>>>>>>>>>>>**wwwwwwqq&&++ryy",
"eeee&.+%5>>>>>>:::::444,,,**>qqqq>**>>>>>>>>>**>*5wwwwqqq&&&eeee",
"uuu1&..>>>>>>*::4wwwwwwww**>>>qq>>>**44444,,**>>*5wwwqqqq&&&euuu",
"uuu1&+.*******:4wwwwwwwww5::>>>q>>*:5ww4444,>>>>*>5wqqqqq&&&euuu",
"1111 +.**>>>*>qwwwwwwwwwww5::>>>>*:55wwww444**>>*>>>qqqqq&&&e111",
"007+...:5:***>>qqqqqqwwwwww5:*>>>*55wwwwwww4q**>*>>>>>qqq&+++780",
"007..X5555:**>>>qqqqqqqqwwww5:*>**>wwwqqwwwqqq**>*>>>>>>>++++780",
"yyr.X%55www***>>qqqqqqqqqwwww55**>qqqqqqqqqqqq>****>>>>>>++++rty",
"yyr.%%;wwwqq**>>>qqqqqqqqqwwwwww,,qqqqqqqqqqqq>>*>**>>>>>+++Xrty",
"yyrO;;;wwqq>>**>>>qqqqqqqqqwwwww,,*>qqqqqqqqqqq>**>******..X$rtt",
"tyrO&;;qq>>>>>**>>>qqqqqqqqqqwwq,**>>qqqqqqqqq>>>*>>*,4w,OO;;ryt",
"tyrO+++>>>>>>>**>>>>>qqqqqqqqqqqq**>>qqqqqqqqq>>>>*>,wwwwqO$;ryy",
"tyr.+++>>>****,**>>>>>>qqqqqqq>>>**>>>qqqqqqqqq>>>*,,wwwwqq$$ryy",
"tyr..++****>*444:*>>>>>>>qqqq>>>>>**>>>>qqqqqqq>>>>,qqwwqqq;$ryy",
"ttrO...*>>*44www4::*>>>>>>>>>>>>>>***>>>>>>>>>>>>>*,q>>qqqq&%ryy",
"etr&OOO,,,wwwwwwww4:*>>>>>>>>>>>******>>>>>>>>>>>>**>>>>qq>>+ryy",
"eeee&OOqqwwwwwwwwwww***>>>>>>****>>>>***>>>>>>>>>**>*>>>>>>>eeee",
"iuu1+O.>>wwwwwwwwww>>***::::::***>>>>>>****>>>>>**>>**>>>>>>euup",
"6uu1.+.>>>wwwqqqqq>>>>*:::::55:**>>>>>**>>*****,,,**,**>>>>*euue",
"uuu1++.>>>>>>qqq>>>>>>*:55555555**>>>>****::>>>,,,qq,,**>**:euuu",
"1111.+**>>>>>>>>>>>>>>*>55555555>**>>*::555::*,,qqqq,,,,,,4;e111",
"007+..>***>>>>>>>>>>>,,>>>>>555>>****:w555ww4,,>>qqqq,*>q4w;;-<9",
"007&&.>>>****>>>>>>>****>>>>>>>>>>>*>55wwwww4q*>>>>qq>**:4w;;788",
"yyr&&$$::*>>>********>>*>>>>>>>>>***>>55www55**>>>>>>>>*:ww;;ryt",
"yyr&$$;w5::>>>>>***>>>>**>>>>>>>**>**>>55555>**>>>>>>>>*::5%+ryt",
"ytrO$$;;w5::>>***>****,,*****>**>>>>*>>>>>>>>*>**>>>>>>*>:5++ryt",
"ytrO.%;;w55:*>::44qqq,,,qq,,,**>>***,*>>>>>>>*>>***>>***>**++ryy",
"ytr.+++%5555*44www4q,,,,qqq,,>**:55w44::>>>***>>>5::::5>>>*..ryy",
"ytr.++++>55**wwwww4,,qq,qqqqqq*:5wwww44::***>>*:::::4555>*,..ryy",
"ytrO.+++>>**qqwwww5**qqqqqqq>>>4wwwwwwwww,***>:ww55w44:5>*>++ryy",
"ytr&O...>**qqqqqw5>**>>>>qq>>>*:ww55wwwww,,>*:4wwwwwww4***>++ryy",
"eeee&&OOO,qqqqqq>>***>>>>>>>>**>55>>>>55>**>,4wwwwqqqqq,,>>+eeee",
"uuu1++...+>>>>>>>**>**>>>>>>****>>>>>>>>******555>q>>>>**>>+euuu",
"2221+++...>>>>>***>>>***>>>**>>**>>>>>>>*>**>**>>>>>>>>**>>+e222"
};
