/* XPM */
static char *result[] = {
/* columns rows colors chars-per-pixel */
"64 64 41 1 ",
"  c #090707",
". c #0A0706",
"X c #0C0908",
"o c #0E0C0C",
"O c #100B0C",
"+ c #120C0D",
"@ c #110E0D",
"# c #19100F",
"$ c #1E110D",
"% c #0B0B14",
"& c #161012",
"* c #151212",
"= c #1D1614",
"- c #1E1616",
"; c #2F1708",
": c #3D1E05",
"> c #231818",
", c #231E1D",
"< c #29211F",
"1 c #3B2419",
"2 c #1A1A30",
"3 c #142836",
"4 c #2B2022",
"5 c #2B2C2C",
"6 c #3C2625",
"7 c #322C2C",
"8 c #323C39",
"9 c #4D2306",
"0 c #4A2A1F",
"q c #5C2F10",
"w c #733814",
"e c #493435",
"r c #563939",
"t c #684D52",
"y c #696A6A",
"u c #95470B",
"i c #8F563B",
"p c #DF7126",
"a c #306082",
"s c #CBDBFC",
"d c white",
/* pixels */
"5555555%5555555555555%;qq11qq11111111111q55555%;qqq111155555%;qq",
"qqq5333%$111111q53333%;qqq1111qqqqqqqqqqq53333%;qqqqqqq55333%;qq",
"1115333%;qqqqqqq53333%$1qqqqqqqqqqq1111qq53333%$1qqqqqq55333%;qq",
"ippyaaa2wppiiippyaaaa2wiiiiiiiiiiiiippiiiyaaaa2wpiiiiiiiyaaa2wii",
"pppyaaa20iiipiiiyadsa2wpppppppppiipppppppyadsa2wppppppppyaaa2wpp",
"wwwyaaa2wwwwwwwwyay8a2wwwwwwwwwwwwwwwwwwwyay8a2wwwwwwwwwyaaa2www",
"999yaaa299999999yaaaa29999999999999999999yaaaa2999999999yaaa2:99",
"0w922222&4444444222222>@@@@@*444444444**4222222**444444*22222:ww",
"009>>@*44444>>>>9www9o@@>>@@--444>>4444**+9w0w9&444444444**@69ww",
"piu>>@*4444>>>>uw0w9OX>>>>@X---4>>>>#--**  9w0w94444444444*o#upp",
"piu>>@>444>>>>upiw9##X>>>>@X#--#>>>###--@>>*9wipu4444444444o#uii",
"piu##X###>>>#upiw9###@@@@@@XX####>#####X@@@@49wipu>>4444444o#upi",
"piu##X######upiw9###X@<<<<<==6666666666=@>>@>>9wipu>>4444--X#uii",
"piu##X#####upiw9##66<<<rrrr===66666666=<rr>@>>>9wppu>>44###XXuip",
"ppuXXX####upiw9###6<<<rrrrrr6=6666666=<rrr<<>>>>9wppu>>>###XXuip",
"yyyy@####upiw9###6<<<<r66rr66===6======666==<##>>9wipu>###XXyyyy",
"aaa2@X##upiw9##o77rrr<6666666=<============6=6##>>9wipu###XXyaaa",
"aaa2XXXuppw9#-ot777tr<66666666=666666ee,====6=6##>>9wipu#XX@yaaa",
"2222X#upiw9Xoott7t77tr==66666=66666=,,eeeee6==666##>9wipuX#>y222",
"ww9@#upiw9@4tt77tttt77r==66===666=,ttttttttt<==6666##9wipu###9ww",
"ww9@upiw9@@tt77tttttt77<6===666==7ttttttttttt<==6666##9wipu##9w0",
"yyyupiw9##@t7tt66rttttt7666666==tttttttttttttr<==666XXX9wipu#yyy",
"sa2piw9###@r7t6666rttttt,66666=tttttttrrrrttrr<r<====##>9wppuyyy",
"8a2pw9###X<6=<666666tttt,=6666<tttttrrrrrrrr66<rrrr66##X@9wppyay",
"aa2w9####X666=6666666tttr==666=6etrrrrrrrrr666=<r66666XX@@9wpyaa",
"2229####X#6666=6666666rrrr==6==6666rrrrrrrr6666=6666===>44>9wy22",
"ww9XXXXXX=<==66=6666666rrrr====66666666rrr66666=666==6t4444>99ww",
"ww9@@@Xootte,=66=6666666666=66==666666666666666=66==ttt4444>>9w0",
"ppu@@>*44ttte,=66==66666666====6666666666666666=6=<ttttt444>#9w0",
"ppu>@@44ttttte==66===666666=rrr<=66666666666666<r<tttttt44>##upi",
"ppu>>@--eeeee66==6ee,==666=<rrrr<<=666666666666==ttttttrr>>##upp",
"yyyy>X#-e666666,,,,,777<<<==6rrrr6==666666666==6=ettttrrr>>>yyyy",
"aaa2>XX666666=,,7tttttttt==666rr666==77777<<==66=etttrrrr>>>yaaa",
"aaa2>#X=======,7ttttttttte,,666r66=,ett7777<6666=6etrrrrr>>>yaaa",
"2222.#X==666=6rttttttttttte,,6666=,eetttt777==66=666rrrrr>>>y222",
"ww9#XXX,e,===66rrrrrrtttttte,=666=eettttttt7r==6=66666rrr>###90w",
"ww9XXoeeee,==666rrrrrrrrtttte,=6==6tttrrtttrrr==6=6666666####90w",
"ppuXo-eettt===66rrrrrrrrrttttee==6rrrrrrrrrrrr6====666666####uip",
"ppuX--4tttrr==666rrrrrrrrrtttttt<<rrrrrrrrrrrr66=6==66666###ouip",
"ppu@444ttrr66==666rrrrrrrrrttttt<<=6rrrrrrrrrrr6==6======XXo*uii",
"ipu@>44rr66666==666rrrrrrrrrrttr<==66rrrrrrrrr666=66=<7t<@@44upi",
"ipu@###6666666==66666rrrrrrrrrrrr==66rrrrrrrrr6666=6<ttttr@*4upp",
"ipuX###666====<==666666rrrrrrr666==666rrrrrrrrr666=<<ttttrr**upp",
"ipuXX##====6=777,=6666666rrrr66666==6666rrrrrrr6666<rrttrrr4*upp",
"iiu@XXX=66=77ttt7,,=66666666666666===6666666666666=<r66rrrr>-upp",
"yiu>@@@<<<tttttttt7,=66666666666======666666666666==6666rr66#upp",
"yyyy>@@rrttttttttttt===666666====6666===666666666==6=6666666yyyy",
"saa2#@X66tttttttttt66===,,,,,,===666666====66666==66==666666yaad",
"8aa2X#X666tttrrrrr6666=,,,,,ee,==66666==66=====<<<==<==6666=yaay",
"aaa2##X666666rrr666666=,eeeeeeee==6666====,,666<<<rr<<==6==,yaaa",
"2222X#==66666666666666=6eeeeeeee6==66=,,eee,,=<<rrrr<<<<<<74y222",
"ww9#XX6===66666666666<<66666eee66====,teeett7<<66rrrr<=6r7t44:1q",
"ww9>>X666====6666666====66666666666=6eettttt7r=6666rr6==,7t44900",
"ppu>>**,,=666========66=666666666===66eetttee==66666666=,tt44upi",
"ppu>**4te,,66666===6666==6666666==6==66eeeee6==66666666=,,e-#upi",
"piu@**44te,,66===6====<<=====6==6666=66666666=6==666666=6,e##upi",
"piu@X-44tee,=6,,77rrr<<<rr<<<==66===<=6666666=66===66===6==##upp",
"piuX###-eeee=77ttt7r<<<<rrr<<6==,eet77,,666===666e,,,,e666=XXupp",
"piuX####6ee==ttttt7<<rr<rrrrrr=,etttt77,,===66=,,,,,7eee6=<XXupp",
"piu@X###66==rrtttte==rrrrrrr6667ttttttttt<===6,tteet77,e6=6##upp",
"piu>@XXX6==rrrrrte6==6666rr666=,tteettttt<<6=,7ttttttt7===6##upp",
"yyyy>>@@@<rrrrrr66===66666666==6ee6666ee6==6<7ttttrrrrr<<66#yyyy",
"aaa2##XXX#6666666==6==666666====66666666======eee6r6666==66#yaaa",
"3332###XXX66666===666===666==66==6666666=6==6==66666666==66#y333"
};
