/* XPM */
static char *result[] = {
/* columns rows colors chars-per-pixel */
"64 64 57 1 ",
"  c #090707",
". c #0A0706",
"X c #0C0908",
"o c #0E0C0C",
"O c #100B0C",
"+ c #120C0D",
"@ c #110E0D",
"# c #19100F",
"$ c #1E110D",
"% c #191909",
"& c #0B0B14",
"* c #161012",
"= c #151212",
"- c #1D1614",
"; c #1E1616",
": c #2F1708",
"> c #3D1E05",
", c #231818",
"< c #231E1D",
"1 c #1E220C",
"2 c #23210E",
"3 c #2C2710",
"4 c #2B2914",
"5 c #29211F",
"6 c #352D17",
"7 c #3B2419",
"8 c #362B19",
"9 c #3C3D16",
"0 c #1A1A30",
"q c #142836",
"w c #2B2022",
"e c #2B2C2C",
"r c #3C2625",
"t c #322C2C",
"y c #3C3023",
"u c #323C39",
"i c #4D2306",
"p c #4A2A1F",
"a c #5C2F10",
"s c #733814",
"d c #493435",
"f c #563939",
"g c #49521E",
"h c #564F21",
"j c #6B5D26",
"k c #68632F",
"l c #684D52",
"z c #696A6A",
"x c #95470B",
"c c #8F563B",
"v c #816D37",
"b c #82683B",
"n c #DF7126",
"m c #927455",
"M c #306082",
"N c #CBDBFC",
"B c white",
/* pixels */
"eeeeeee&eeeeeeeeeeeee&:aa77aa77777777777aeeeee&:aaa7777eeeee&:aa",
"aaaeqqq&$777777aeqqqq&:aaa7777aaaaaaaaaaaeqqqq&:aaaaaaaeeqqq&:aa",
"777eqqq&:aaaaaaaeqqqq&$7aaaaaaaaaaa7777aaeqqqq&$7aaaaaaeeqqq&:aa",
"cnnzMMM0snncccnnzMMMM0scccccccccccccnnccczMMMM0snccccccczMMM0scc",
"nnnzMMM0pcccnccczMBNM0snnnnnnnnnccnnnnnnnzMBNM0snnnnnnnnzMMM0snn",
"ssszMMM0sssssssszMzuM0ssssssssssssssssssszMzuM0ssssssssszMMM0sss",
"iiizMMM0iiiiiiiizMMMM0iiiiiiiiiiiiiiiiiiizMMMM0iiiiiiiiizMMM0>ii",
"psi00000*wwwwwww0000008@@@@@=wwwwwwyww==w000000=4wwwwww400000>ss",
"ppi,,@=wwwww,,,,isssio@@,,@@;;www,,wwwy==+ispsi*wwwwwwwww=4@jiss",
"ncx,,@=wwww,,,,xspsiOX,,,,@X;;;w,,,,#;;4=  ispsiwwwwyywwww413xnn",
"ncx,,@,www,,,,xncsi##X,,,,@X#;;#,,,##3;62,8=iscnxwwwwwwwwyw13xcc",
"ncx##X#33,,,3xncsi###@@2@@@%X####,##3##X2@@@wiscnx,,wwwwwwyo3xnc",
"ncx##X#3####xncsi###X@55555--rrrrrrrrrr-@,,2,,iscnx,,wwyy;;X#xcc",
"ncx3#X#####xncsi##jr5h5bfff---rrrrrrrr-5ff,@,,,isnnx,,ww#3#XXxcn",
"nnxXXX3###xncsi###r555ffffbfr-jrrrrrr-5fff55,,,,isnnx,,,#33XXxcn",
"zzzz@#3##xncsi###r55h5frrffrr---r------rrr--5##,,iscnx8#3#XXzzzz",
"MMM0@X##xncsi3#ottfff5jrrrrrr-5------------r-r##,,iscnx###XXzMMM",
"MMM0XXXxnnsi#6olkttlf5rrrrrrrr-rrrrrrdd<----r-r##,,iscnx#%X2zMMM",
"0000X#xncsiX1ollklttlb--rrrrr-rrrrr-<<dddddr--rrr##,iscnxX#,z000",
"ssi@#xncsi2ylmtklmmlttb9-jr---rrr-<lllllllll5--rrjr#3iscnx#3#iss",
"ssi@xncsi@@lmttllllmlkt5r---rjr--tlllllllllll5--rrjj3#iscnx33isp",
"zzzxncsi##@lkllrrbllllltrrjjrr--lllllllllllllf5--rrjXX%iscnx#zzz",
"NM0ncsi#3#@ftlrrrrflllmlgjrjrj9mllllllffffllff5fh--99#38isnnxzzz",
"uM0nsi###X5r-5rrrjjrllllg-rrrr5lllllbfffffffrr5ffffjr3#%2isnnzMz",
"MM0si##3#Xrrr-rrrrrrjmllf--rrj-jdlbffffffffrrj-5frrrrrXX22isnzMM",
"000i####X#rrrr9rrrrrrrffff9-r-9rrjrffbbffffrrrr9rjrj---,yy,isz00",
"ssiXXXXXX-5--rr-jrrrrrrffbf---9rrrrrjrrbffrrrrr-rrj9-rmwyww8iiss",
"ssi@@@Xoolld<-rr-rjrrrrrrrj-rr99rjrrrrrrrrrrjrr-rr-9llmwyyw8,isp",
"nnx@@,=wwllld<-rr--rrrrrjrr--9-rjrjrrjrjrrrrrrr-r95mmmmmwyw8#isp",
"nnx,@@wwllllld--rr---rrrrrr-fbf5-jrjrrrrrrrrjrr5f5mmmlmmww,##xnc",
"nnx,,@;;dddddrr--jdd<9-jjr-5ffbbhh9jrrrrrrrrrrr--llllllff8,##xnn",
"zzzz,X#;drrrrrr<<<<<ttt555-9rffbbj9-rjrjrrrrr--r-vlmmmfff,,,zzzz",
"MMM0,XXrrrrrr-<<tllllllll--rjjbfjrj99kkttt55--rr-dlmlffff,,,zMMM",
"MMM0,#X---9---<tllllllllldg<rjjbjj-<dlmtttt5rrrr-rdlfbffb,,,zMMM",
"0000.#X--rrr-rfllllllllllld<<rjrr-<dvllllttt--rr-rrrbfbff,,,z000",
"ssi3%X%<d<-9-rrfffffflllllmvg-rrr9ddmllmmlltf--r-rrrrrffb,###ips",
"ssi%Xoddvv<-9rrjfffffffflllldg9j9-jmmlfblllfff--r-rrrrjrj####ips",
"nnxXo;ddlll---rrfbffffffflllmdv-9jbffbffffffffr----rrrrrr####xcn",
"nnxX;;wmlmfb--rrrfffffffffllmlll5hbbfbbfffffffrr-r--rrrrj###oxcn",
"nnx2wwwlmfbrr--rrrfffffffffmmlml55-jbffbfffffffr--r---9--XXo=xcc",
"cnx@8wwbfjjrrr--rrrbfffffffbblmfh--rjbbfffffffrrr-rr-5tl5@@wwxnc",
"cnx@###rrrrrrr--rrrjrfbffffffffff-9rrfffffffffrrrr-r5lmmlf@=wxnn",
"cnxX###rrr----5-9rrrrjjfffffbfrjr-9rrjbffffffffrrr-55llllff==xnn",
"cnxXX##----r-tkt<-jrrrrrrffffrrjrr--rjrrfffffffrrrr5ffllfffw=xnn",
"ccx@XXX-rr-ttlllk<<-jrrrrrrrrrrrjr---rrrrrrrrrrrrr-5frrffff,;xnn",
"zcx,@@@555llmlllllkg9rrrrrrrrrrj--9---rjrrrrrrrrrr--rrrrffrr#xnn",
"zzzz,@@ffllllmlllllm9--rrrrrr----rrrr---rrrrrrrrr--r-rrrrrrrzzzz",
"NMM0#@%rrllmlllllllrr9--<<<<<<---rrrrrr----rrrrr--rr--rrrrrrzMMB",
"uMM0X#Xrrrlllfffffrjrr-<<<g<dd<--rrrrr--rr-----555-959-rrrr-zMMz",
"MMM0##Xjrrrrrfffrrjrrr-<dddddddd--rrrr----<<rrr555ff55--r--<zMMM",
"0000X#--rjrrjrrrrrrrrr-rddddddddr--rr-<<ddd<<-55ffff55555htwz000",
"ssi#XXr---rjjjrrrjrrjh5rrrrrdddrr9---<ldddllkh5rrffff59rftlyy>7a",
"ssi,,Xrrr--9-rrrrrrr----rjjjjrrrrrr9rddlllmltf-rrrjffr99<tlwwipp",
"nnx,,==<<-jrr--------jr-rrrrrrrrr-9-rrddllldd-9rrrrjrrr-<lmwwxnc",
"nnx,==yld<<rrrrj---rrrr9-rrrjrjr--j--rrddddvr9-rrjrrrrr-<gd;#xnc",
"ncx@==wwld<grr-9-j----55----9r--rrrr9rrjrjrrr9r9-jjrrrr-r<v##xnc",
"ncx@X;wwldd<-r<<ttfbf555ff555--jr-9-5-rrrrrrr-rj---jj999j-9##xnn",
"ncxX###6ddvd-ktlllkf5555fff55j--<ddlttg<rjj99-rjjv<<<gvjrj-%Xxnn",
"ncxX####rvd-9lllllk55ff5fbffff-<dmlmltt<g---jj9<g<g<kvddr-5%Xxnn",
"ncx@X###rr--fflllld-9fffffffrjrtmmmllmlml5--9jgllddmkk<vj-j3#xnn",
"ncx,@%XXr--ffffbldr9-rrrrbfrjr9<llvdlmlll55j9gtmmlmmmmt99-j#3xnn",
"zzzz,,@@@5ffbfbbjr---rrrrrrrr--rddrrrjdvr-9r5tmllmffbff55jj3zzzz",
"MMM0##%XX#rrrjjjr--r--rrrrrr99--jjrrrrjr-9----ddvjfrrrr-9jr3zMMM",
"qqq0###XXXrrrrr---jjr---rrr--jj--jjrrrrr9r--r9-rrrrrrrr--rr3zqqq"
};
