/* XPM */
static char *bef13d4ece244cf5cac57664153d74c5ZcZptyfz0U78JE4D[] = {
/* columns rows colors chars-per-pixel */
"64 64 54 1 ",
"  c #090505",
". c #0C0908",
"X c #0E0C0C",
"o c #10090A",
"O c #110E0D",
"+ c #150D0C",
"@ c #1E110D",
"# c #191909",
"$ c #0B0B14",
"% c #151212",
"& c #1A1111",
"* c #1E1312",
"= c #1D1614",
"- c #2F1708",
"; c #3D1E05",
": c #241A1A",
"> c #231E1D",
", c #331F1D",
"< c #1E220C",
"1 c #23210E",
"2 c #25210C",
"3 c #2D2911",
"4 c #2B2914",
"5 c #29211F",
"6 c #302713",
"7 c #3B2419",
"8 c #382D1B",
"9 c #3C3D16",
"0 c #1A1A30",
"q c #142836",
"w c #2B2C2C",
"e c #322C2C",
"r c #3E2A29",
"t c #323C39",
"y c #4D2306",
"u c #4A2A1F",
"i c #5C2F10",
"p c #733814",
"a c #492E2C",
"s c #583F3F",
"d c #5A4F1E",
"f c #49521E",
"g c #564F21",
"h c #755D2E",
"j c #6D632A",
"k c #68632F",
"l c #696A6A",
"z c #95470B",
"x c #8F563B",
"c c #DF7126",
"v c #896D42",
"b c #306082",
"n c #CBDBFC",
"m c white",
/* pixels */
"wwwwwww$wwwwwwwwwwwww$-ii77ii77777777777iwwwww$-iii7777wwwww$-ii",
"iiiwqqq$@777777iwqqqq$-iii7777iiiiiiiiiiiwqqqq$-iiiiiiiwwqqq$-ii",
"777wqqq$-iiiiiiiwqqqq$@7iiiiiiiiiii7777iiwqqqq$@7iiiiiiwwqqq$-ii",
"xcclbbb0pccxxxcclbbbb0pxxxxxxxxxxxxxccxxxlbbbb0pcxxxxxxxlbbb0pxx",
"ccclbbb0uxxxcxxxlbmnb0pcccccccccxxccccccclbmnb0pcccccccclbbb0pcc",
"ppplbbb0pppppppplbltb0ppppppppppppppppppplbltb0ppppppppplbbb0ppp",
"yyylbbb0yyyyyyyylbbbb0yyyyyyyyyyyyyyyyyyylbbbb0yyyyyyyyylbbb0;yy",
"upy00000O:::::::0000006OOOOO%::::::8::%%:000000%4::::::400000;pp",
"uuy**O%:::::****ypppyXOO**OO&&:::**:::8%%oypupyO:::::::::%4Odypp",
"cxz**O%::::****zpupy..****O.&&&:****+&&4%  ypupy::::88::::4<2zcc",
"cxz**O*:::****zcxpy++.****O.+&&+***++2&31*6%ypxcz::::::::8:<2zxx",
"cxz++.+22***2zcxpy+++OO1OOO#.++++*++2++.1OOO:ypxcz**::::::8X2zcx",
"cxz++.+2++++zcxpy+++.O55555==,,,,,,,,,,=O**1**ypxcz**::88&&.+zxx",
"cxz2+.+++++zcxpy++d,5g5haaa===,,,,,,,,=5aa*O***ypccz**::+2+..zxc",
"ccz...2+++zcxpy+++,555aaaaha,=d,,,,,,=5aaa55****ypccz***+22..zxc",
"llllO+2++zcxpy+++,55g5a,,aa,,===,======,,,==5++**ypxcz6+2+..llll",
"bbb0O.++zcxpy2+Xeeaaa5d,,,,,,=5============,=,++**ypxcz+++..lbbb",
"bbb0...zccpy+3Xskeesa5,,,,,,,,=,,,,,,rr>====,=,++**ypxcz+#.1lbbb",
"0000.+zcxpy.<Xsskseesh==,,,,,=,,,,,=>>rrrrr,==,,,++*ypxcz.+*l000",
"ppyO+zcxpy18sveksvvseeh9=d,===,,,=>sssssssss5==,,d,+2ypxcz+2+ypp",
"ppyOzcxpyOOsveessssvske5,===,d,==esssssssssss5==,,dd2+ypxcz22ypu",
"lllzcxpy++Oskss,,hssssse,,dd,,==sssssssssssssa5==,,d..#ypxcz+lll",
"nb0cxpy+2+Oaes,,,,asssvsfd,d,d9vssssssaaaassaa5ag==99+26ypcczlll",
"tb0cpy+++.5,=5,,,dd,ssssf=,,,,5ssssshaaaaaaa,,5aaaad,2+#1ypcclbl",
"bb0py++2+.,,,=,,,,,,dvssa==,,d=drshaaaaaaaa,,d=5a,,,,,..11ypclbb",
"000y++++.+,,,,9,,,,,,,aaaa9=,=9,,d,aahhaaaa,,,,9,d,d===*88*ypl00",
"ppy......=5==,,=d,,,,,,aaha===9,,,,,d,,haa,,,,,=,,d9=,v:8::6yypp",
"ppyOOO.XXssr>=,,=,d,,,,,,,d=,,99,d,,,,,,,,,,d,,=,,=9ssv:88:6*ypu",
"cczOO*%::sssr>=,,==,,,,,d,,==9=,d,d,,d,d,,,,,,,=,95vvvvv:8:6+ypu",
"ccz*OO::sssssr==,,===,,,,,,=aha5=d,d,,,,,,,,d,,5a5vvvsvv::*++zcx",
"ccz**O&&rrrrr,,==drr>9=dd,=5aahhgg9d,,,,,,,,,,,==ssssssaa6*++zcc",
"llll*.+&r,,,,,,>>>>>eee555=9,aahhd9=,d,d,,,,,==,=jsvvvaaa***llll",
"bbb0*..,,,,,,=>>essssssss==,ddhad,d99kkeee55==,,=rsvsaaaa***lbbb",
"bbb0*+.===9===>esssssssssrf>,ddhdd=>rsveeee5,,,,=,rsahaah***lbbb",
"0000 +.==,,,=,asssssssssssr>>,d,,=>rjsssseee==,,=,,,hahaa***l000",
"ppy2#.#>r>=9=,,aaaaaasssssvjf=,,,9rrvssvvssea==,=,,,,,aah*+++yup",
"ppy#.Xrrjj>=9,,daaaaaaaassssrf9d9=dvvsahsssaaa==,=,,,,d,d++++yup",
"ccz.X&rrsss===,,ahaaaaaaasssvrj=9dhaahaaaaaaaa,====,,,,,,++++zxc",
"ccz.&&:vsvah==,,,aaaaaaaaassvsss5ghhahhaaaaaaa,,=,==,,,,d+++Xzxc",
"ccz1:::svah,,==,,,aaaaaaaaavvsvs55=dhaahaaaaaaa,==,===9==..X%zxx",
"xczO6::hadd,,,==,,,haaaaaaahhsvag==,dhhaaaaaaa,,,=,,=5es5OO::zcx",
"xczO+++,,,,,,,==,,,d,ahaaaaaaaaaa=9,,aaaaaaaaa,,,,=,5svvsaO%:zcc",
"xcz.+++,,,====5=9,,,,ddaaaaaha,d,=9,,dhaaaaaaaa,,,=55ssssaa%%zcc",
"xcz..++====,=eke>=d,,,,,,aaaa,,d,,==,d,,aaaaaaa,,,,5aassaaa:%zcc",
"xxzO...=,,=eesssk>>=d,,,,,,,,,,,d,===,,,,,,,,,,,,,=5a,,aaaa*&zcc",
"lxz*OOO555ssvssssskf9,,,,,,,,,,d==9===,d,,,,,,,,,,==,,,,aa,,+zcc",
"llll*OOaassssvsssssv9==,,,,,,====,,,,===,,,,,,,,,==,=,,,,,,,llll",
"nbb0+O#,,ssvsssssss,,9==>>>>>>===,,,,,,====,,,,,==,,==,,,,,,lbbm",
"tbb0.+.,,,sssaaaaa,d,,=>>>f>rr>==,,,,,==,,=====555=959=,,,,=lbbl",
"bbb0++.d,,,,,aaa,,d,,,=>rrrrrrrr==,,,,====>>,,,555aa55==,==>lbbb",
"0000.+==,d,,d,,,,,,,,,=,rrrrrrrr,==,,=>>rrr>>=55aaaa55555ge:l000",
"ppy+..,===,ddd,,,d,,dg5,,,,,rrr,,9===>srrrsskg5,,aaaa59,aes88;7i",
"ppy**.,,,==9=,,,,,,,====,dddd,,,,,,9,rrsssvsea=,,,daa,99>es::yuu",
"ccz**%%>>=d,,========d,=,,,,,,,,,=9=,,rrsssrr=9,,,,d,,,=>sv::zcx",
"ccz*%%8sr>>,,,,d===,,,,9=,,,d,d,==d==,,rrrrj,9=,,d,,,,,=>fr&+zcx",
"cxzO%%::sr>f,,=9=d====55====9,==,,,,9,,d,d,,,9,9=dd,,,,=,>j++zcx",
"cxzO.&::srr>=,>>eeaha555aa555==d,=9=5=,,,,,,,=,d===dd999d=9++zcc",
"cxz.+++3rrjr=kessska5555aaa55d==>rrseef>,dd99=,ddj>>>fjd,d=#.zcc",
"cxz.++++,jr=9sssssk55aa5ahaaaa=>rvsvsee>f===dd9>f>f>kjrr,=5#.zcc",
"cxzO.+++,,==aassssr=9aaaaaaa,d,evvvssvsvs5==9dfssrrvkk>jd=d2+zcc",
"cxz*O#..,==aaaahsr,9=,,,,ha,d,9>ssjrsvsss55d9fevvsvvvve99=d+2zcc",
"llll**OOO5aahahhd,===,,,,,,,,==,rr,,,drj,=9,5evssvaahaa55dd2llll",
"bbb0++#..+,,,ddd,==,==,,,,,,99==dd,,,,d,=9====rrjda,,,,=9d,2lbbb",
"qqq0+++...,,,,,===dd,===,,,==dd==dd,,,,,9,==,9=,,,,,,,,==,,2lqqq"
};
